<svg xmlns="http://www.w3.org/2000/svg" xmlns:xlink="http://www.w3.org/1999/xlink" width="1080" zoomAndPan="magnify" viewBox="0 0 810 809.999993" height="1080" preserveAspectRatio="xMidYMid meet" version="1.0"><rect x="-81" width="972" fill="#ffffff" y="-80.999999" height="971.999992" fill-opacity="1"/><rect x="-81" width="972" fill="#ffffff" y="-80.999999" height="971.999992" fill-opacity="1"/><path fill="#416b58" d="M 285.550781 512.140625 C 277.867188 508.953125 263.21875 498.078125 256.367188 491.449219 C 250.785156 486.050781 249.113281 475.914062 255.6875 472.667969 C 268.160156 466.519531 282.210938 497.984375 286.753906 510.273438 L 285.550781 512.140625 " fill-opacity="1" fill-rule="nonzero"/><path fill="#519d6c" d="M 279.648438 495.917969 C 267.925781 487.796875 252.703125 485.730469 251.914062 492.886719 C 251.011719 501.085938 264.171875 510.15625 271.273438 514.347656 C 278.855469 518.828125 290.121094 520.828125 298.824219 521.710938 C 298.824219 521.710938 295.050781 506.582031 279.648438 495.917969 " fill-opacity="1" fill-rule="nonzero"/><path fill="#519d6c" d="M 292.351562 508.707031 C 293.855469 499.761719 292.417969 485.246094 289.015625 476.929688 C 284.835938 466.726562 279.574219 459.738281 272.882812 460.570312 C 265.5 461.703125 267.171875 472.695312 271.394531 481.949219 C 278.835938 498.265625 292.351562 508.707031 292.351562 508.707031 " fill-opacity="1" fill-rule="nonzero"/><path fill="#416b58" d="M 298.804688 521.71875 C 296.25 508.066406 289.316406 495.390625 288.238281 481.273438 C 287.390625 470.136719 297.046875 468.316406 300.941406 474.410156 C 305.445312 481.457031 304.285156 489.6875 302.164062 503.480469 C 301.253906 509.429688 298.804688 521.71875 298.804688 521.71875 " fill-opacity="1" fill-rule="nonzero"/><path fill="#9ad87d" d="M 298.820312 521.710938 C 295.136719 508.890625 291.703125 472.324219 275.734375 481.476562 C 270.007812 484.757812 265.945312 493.375 275.925781 504.136719 C 280.996094 509.605469 298.820312 521.710938 298.820312 521.710938 " fill-opacity="1" fill-rule="nonzero"/><path fill="#416b58" d="M 379.804688 512.886719 C 387.226562 509.132812 401.023438 497.195312 407.359375 490.070312 C 412.523438 484.273438 413.429688 474.035156 406.628906 471.292969 C 393.734375 466.09375 382.074219 498.515625 378.464844 511.113281 L 379.804688 512.886719 " fill-opacity="1" fill-rule="nonzero"/><path fill="#519d6c" d="M 384.476562 496.269531 C 395.554688 487.296875 410.582031 484.089844 411.910156 491.167969 C 413.421875 499.28125 400.972656 509.308594 394.203125 514.023438 C 386.980469 519.058594 375.894531 521.890625 367.28125 523.421875 C 367.28125 523.421875 369.914062 508.058594 384.476562 496.269531 " fill-opacity="1" fill-rule="nonzero"/><path fill="#519d6c" d="M 372.765625 509.972656 C 370.597656 501.164062 370.945312 486.582031 373.71875 478.035156 C 377.121094 467.546875 381.847656 460.183594 388.578125 460.511719 C 396.027344 461.09375 395.179688 472.175781 391.664062 481.71875 C 385.460938 498.546875 372.765625 509.972656 372.765625 509.972656 " fill-opacity="1" fill-rule="nonzero"/><path fill="#416b58" d="M 367.304688 523.429688 C 368.832031 509.625 374.796875 496.464844 374.8125 482.308594 C 374.828125 471.140625 365.0625 470.046875 361.632812 476.414062 C 357.671875 483.773438 359.445312 491.898438 362.589844 505.492188 C 363.945312 511.359375 367.304688 523.429688 367.304688 523.429688 " fill-opacity="1" fill-rule="nonzero"/><path fill="#9ad87d" d="M 367.285156 523.425781 C 370 510.363281 370.691406 473.640625 387.300781 481.574219 C 393.257812 484.417969 397.949219 492.710938 388.804688 504.1875 C 384.15625 510.019531 367.285156 523.425781 367.285156 523.425781 " fill-opacity="1" fill-rule="nonzero"/><path fill="#9ad87d" d="M 299.953125 521.164062 C 299.953125 521.164062 276.828125 504.925781 298.246094 490.671875 C 316.4375 478.566406 325.421875 498.820312 338.410156 493.046875 C 351.398438 487.273438 376.257812 493.601562 369.074219 519.449219 L 299.953125 521.164062 " fill-opacity="1" fill-rule="nonzero"/><path fill="#9ad87d" d="M 455.554688 537.660156 C 455.554688 537.660156 426.933594 517.3125 453.652344 499.753906 C 476.347656 484.839844 487.367188 510.078125 503.554688 502.996094 C 519.734375 495.917969 550.585938 503.957031 541.472656 536.035156 L 455.554688 537.660156 " fill-opacity="1" fill-rule="nonzero"/><path fill="#519d6c" d="M 508.78125 433.453125 C 524.519531 435.128906 533.761719 423.039062 532.566406 407.566406 C 531.835938 398.398438 525.894531 395.492188 521.492188 388.769531 C 516.148438 380.246094 518.105469 372.5 521.253906 364.308594 C 526 351.742188 532.136719 342.164062 532.445312 328.554688 C 532.601562 321.753906 531.511719 315.953125 527.554688 310.417969 C 523.152344 303.695312 515.644531 299.488281 513.609375 291.882812 C 511.699219 283.15625 515.585938 273.339844 513.730469 264.046875 C 510.730469 249.519531 502.355469 244.15625 495.558594 243.753906 C 482.914062 243 475.226562 249.714844 472.496094 264.296875 C 470.820312 273.621094 474.886719 283.363281 473.132812 292.125 C 471.242188 299.765625 463.816406 304.113281 459.539062 310.914062 C 455.683594 316.523438 454.707031 322.339844 454.988281 329.140625 C 455.550781 342.738281 461.863281 352.199219 466.84375 364.675781 C 470.140625 372.808594 472.246094 380.519531 467.054688 389.140625 C 462.785156 395.941406 456.894531 398.957031 456.335938 408.140625 C 455.429688 423.632812 464.894531 435.546875 480.597656 433.582031 L 508.78125 433.453125 " fill-opacity="1" fill-rule="nonzero"/><path fill="#9ad87d" d="M 491.949219 266.441406 L 491.949219 520.023438 C 491.949219 521.046875 492.78125 521.878906 493.808594 521.878906 C 494.832031 521.878906 495.664062 521.046875 495.664062 520.023438 L 495.664062 266.441406 C 495.664062 265.417969 494.832031 264.585938 493.808594 264.585938 C 492.78125 264.585938 491.949219 265.417969 491.949219 266.441406 " fill-opacity="1" fill-rule="nonzero"/><path fill="#9ad87d" d="M 474.667969 314.570312 L 492.652344 328.925781 C 493.300781 329.449219 494.222656 329.46875 494.898438 328.980469 L 513.128906 315.734375 C 513.957031 315.132812 514.140625 313.96875 513.539062 313.140625 C 512.933594 312.3125 511.773438 312.128906 510.945312 312.730469 L 493.863281 325.144531 L 476.984375 311.667969 C 476.1875 311.03125 475.019531 311.160156 474.378906 311.960938 C 473.738281 312.761719 473.871094 313.933594 474.671875 314.570312 L 474.667969 314.570312 " fill-opacity="1" fill-rule="nonzero"/><path fill="#9ad87d" d="M 478.957031 285.617188 L 492.554688 296.472656 C 493.207031 296.996094 494.128906 297.015625 494.804688 296.523438 L 508.59375 286.507812 C 509.421875 285.902344 509.605469 284.742188 509.003906 283.914062 C 508.398438 283.085938 507.242188 282.902344 506.410156 283.503906 L 493.765625 292.691406 L 481.273438 282.714844 C 480.472656 282.074219 479.300781 282.207031 478.664062 283.007812 C 478.023438 283.808594 478.15625 284.976562 478.957031 285.617188 " fill-opacity="1" fill-rule="nonzero"/><path fill="#9ad87d" d="M 474.542969 342.683594 L 492.523438 357.039062 C 493.175781 357.558594 494.097656 357.582031 494.773438 357.089844 L 513 343.84375 C 513.828125 343.242188 514.015625 342.082031 513.410156 341.253906 C 512.808594 340.421875 511.648438 340.238281 510.820312 340.84375 L 493.734375 353.253906 L 476.863281 339.78125 C 476.0625 339.144531 474.894531 339.273438 474.25 340.074219 C 473.613281 340.875 473.742188 342.042969 474.546875 342.683594 L 474.542969 342.683594 " fill-opacity="1" fill-rule="nonzero"/><path fill="#9ad87d" d="M 474.421875 370.792969 L 492.398438 385.148438 C 493.054688 385.667969 493.976562 385.691406 494.652344 385.199219 L 512.878906 371.957031 C 513.707031 371.351562 513.890625 370.191406 513.289062 369.359375 C 512.6875 368.53125 511.523438 368.347656 510.695312 368.949219 L 493.609375 381.363281 L 476.738281 367.890625 C 475.9375 367.25 474.765625 367.382812 474.128906 368.183594 C 473.488281 368.984375 473.621094 370.152344 474.421875 370.792969 " fill-opacity="1" fill-rule="nonzero"/><path fill="#9ad87d" d="M 474.296875 398.902344 L 492.277344 413.257812 C 492.925781 413.78125 493.851562 413.800781 494.527344 413.308594 L 512.753906 400.066406 C 513.582031 399.460938 513.765625 398.300781 513.164062 397.46875 C 512.5625 396.640625 511.402344 396.460938 510.570312 397.058594 L 493.488281 409.472656 L 476.613281 396 C 475.8125 395.363281 474.644531 395.492188 474.003906 396.292969 C 473.363281 397.09375 473.496094 398.261719 474.296875 398.902344 " fill-opacity="1" fill-rule="nonzero"/><path fill="#eae0d7" d="M 546.796875 553.121094 C 554.058594 567.003906 467.886719 557.984375 391.949219 557.984375 C 332.867188 557.984375 369.683594 548.46875 324.621094 548.46875 C 281.207031 548.46875 255.589844 542.441406 253.042969 534.554688 C 248.390625 520.152344 316.015625 517.433594 391.949219 517.285156 C 514.929688 517.046875 445.363281 530.382812 470.246094 534.0625 C 486.179688 536.417969 529.480469 530.671875 544.277344 534.554688 C 561.628906 539.105469 542 543.953125 546.796875 553.121094 " fill-opacity="1" fill-rule="nonzero"/><path fill="#c7bfb7" d="M 286.636719 527.9375 C 286.582031 527.972656 285.632812 528.511719 284.621094 529.429688 C 284.117188 529.890625 283.589844 530.449219 283.164062 531.132812 C 282.738281 531.808594 282.394531 532.640625 282.394531 533.597656 C 282.390625 534.304688 282.597656 535.054688 283.019531 535.726562 C 283.761719 536.90625 285.03125 537.84375 286.945312 538.6875 C 289.828125 539.945312 294.273438 541.007812 301.203125 541.789062 C 308.128906 542.566406 317.53125 543.042969 330.25 543.042969 C 348.296875 543.042969 359.121094 543.226562 365.363281 543.625 C 368.476562 543.824219 370.460938 544.082031 371.527344 544.359375 C 372.050781 544.488281 372.339844 544.636719 372.359375 544.660156 L 372.363281 544.660156 L 372.671875 544.257812 L 372.238281 544.5 C 372.296875 544.613281 372.359375 544.660156 372.363281 544.660156 L 372.671875 544.257812 L 372.238281 544.5 L 372.953125 544.101562 L 372.132812 544.101562 C 372.128906 544.226562 372.171875 544.394531 372.238281 544.5 L 372.953125 544.101562 L 372.132812 544.101562 L 372.789062 544.101562 L 372.15625 543.910156 C 372.148438 543.945312 372.132812 544.011719 372.132812 544.101562 L 372.789062 544.101562 L 372.15625 543.910156 L 372.472656 544.003906 L 372.167969 543.878906 L 372.15625 543.910156 L 372.472656 544.003906 L 372.167969 543.878906 L 372.175781 543.878906 L 372.167969 543.878906 L 372.175781 543.878906 L 372.167969 543.878906 C 372.15625 543.917969 371.964844 544.171875 371.679688 544.464844 C 371.253906 544.917969 370.636719 545.492188 370.078125 546.214844 C 369.800781 546.582031 369.535156 546.984375 369.328125 547.457031 C 369.121094 547.929688 368.976562 548.472656 368.976562 549.0625 C 368.972656 549.484375 369.140625 549.878906 369.335938 550.136719 C 369.523438 550.390625 369.726562 550.554688 369.921875 550.691406 C 370.304688 550.945312 370.695312 551.101562 371.144531 551.25 C 371.980469 551.519531 373.042969 551.734375 374.363281 551.933594 C 378.972656 552.621094 386.773438 553.066406 396.496094 553.347656 C 406.210938 553.625 417.820312 553.738281 429.921875 553.738281 C 448.632812 553.738281 468.507812 553.472656 484.324219 553.136719 C 492.230469 552.972656 499.125 552.789062 504.351562 552.617188 C 506.964844 552.53125 509.164062 552.445312 510.867188 552.367188 C 512.570312 552.289062 513.765625 552.21875 514.445312 552.148438 C 516.003906 551.980469 517.160156 551.78125 518.054688 551.480469 C 518.507812 551.328125 518.898438 551.160156 519.285156 550.859375 C 519.476562 550.710938 519.664062 550.515625 519.828125 550.25 C 519.984375 549.988281 520.089844 549.640625 520.089844 549.296875 C 520.089844 548.824219 519.90625 548.425781 519.714844 548.152344 C 519.324219 547.617188 518.886719 547.339844 518.367188 547.039062 C 517.398438 546.503906 516.074219 546.019531 514.355469 545.507812 C 511.359375 544.617188 507.183594 543.691406 502.125 542.796875 C 486.960938 540.101562 463.917969 537.65625 442.25 537.636719 C 434.722656 537.636719 429.84375 536.613281 427.015625 535.273438 C 425.59375 534.609375 424.695312 533.882812 424.175781 533.214844 C 423.652344 532.539062 423.476562 531.949219 423.472656 531.367188 C 423.472656 530.683594 423.746094 529.964844 424.292969 529.289062 C 424.832031 528.621094 425.636719 528.023438 426.558594 527.65625 C 427.296875 527.363281 427.652344 526.527344 427.359375 525.792969 C 427.066406 525.054688 426.230469 524.695312 425.492188 524.992188 C 424.132812 525.539062 422.941406 526.394531 422.058594 527.480469 C 421.179688 528.566406 420.601562 529.910156 420.601562 531.367188 C 420.597656 532.597656 421.039062 533.875 421.914062 534.984375 C 423.234375 536.660156 425.445312 538 428.726562 538.964844 C 432.015625 539.925781 436.414062 540.503906 442.246094 540.507812 C 460.242188 540.523438 479.296875 542.238281 493.804688 544.363281 C 501.058594 545.425781 507.1875 546.589844 511.441406 547.683594 C 513.570312 548.230469 515.234375 548.761719 516.28125 549.214844 C 516.804688 549.441406 517.167969 549.652344 517.316406 549.769531 L 517.378906 549.824219 L 517.382812 549.824219 L 517.773438 549.472656 L 517.304688 549.695312 C 517.34375 549.78125 517.375 549.820312 517.382812 549.824219 L 517.773438 549.472656 L 517.304688 549.695312 L 518.15625 549.296875 L 517.214844 549.296875 C 517.214844 549.464844 517.261719 549.609375 517.304688 549.695312 L 518.15625 549.296875 L 517.214844 549.296875 L 518.207031 549.296875 L 517.351562 548.792969 C 517.277344 548.90625 517.210938 549.105469 517.214844 549.296875 L 518.207031 549.296875 L 517.351562 548.792969 L 517.9375 549.136719 L 517.492188 548.613281 C 517.472656 548.632812 517.414062 548.683594 517.351562 548.792969 L 517.9375 549.136719 L 517.492188 548.613281 L 517.605469 548.75 L 517.507812 548.601562 L 517.492188 548.613281 L 517.605469 548.75 L 517.507812 548.601562 C 517.496094 548.621094 517.148438 548.785156 516.574219 548.917969 C 515.996094 549.050781 515.183594 549.183594 514.148438 549.289062 C 513.605469 549.347656 512.410156 549.421875 510.730469 549.496094 C 498.925781 550.046875 462.613281 550.867188 429.921875 550.867188 C 414.230469 550.867188 399.367188 550.675781 388.457031 550.179688 C 383.003906 549.929688 378.53125 549.601562 375.488281 549.191406 C 373.96875 548.988281 372.796875 548.757812 372.109375 548.542969 C 371.769531 548.441406 371.550781 548.328125 371.53125 548.3125 L 371.496094 548.363281 L 371.535156 548.316406 L 371.53125 548.3125 L 371.496094 548.363281 L 371.535156 548.316406 L 371.125 548.851562 L 371.6875 548.492188 C 371.609375 548.371094 371.550781 548.324219 371.535156 548.316406 L 371.125 548.851562 L 371.6875 548.492188 L 370.792969 549.0625 L 371.851562 549.0625 C 371.851562 548.832031 371.765625 548.609375 371.6875 548.492188 L 370.792969 549.0625 L 371.851562 549.0625 C 371.847656 548.875 371.917969 548.628906 372.125 548.296875 C 372.429688 547.796875 373.019531 547.203125 373.601562 546.613281 C 373.890625 546.3125 374.179688 546.007812 374.445312 545.640625 C 374.578125 545.457031 374.707031 545.253906 374.8125 545.003906 C 374.917969 544.757812 375.003906 544.457031 375.003906 544.101562 C 375.007812 543.746094 374.902344 543.355469 374.710938 543.039062 C 374.53125 542.746094 374.300781 542.523438 374.066406 542.347656 C 373.617188 542.023438 373.136719 541.835938 372.550781 541.660156 C 371.527344 541.367188 370.15625 541.152344 368.191406 540.964844 C 362.3125 540.410156 351.101562 540.171875 330.25 540.171875 C 310.984375 540.175781 299.445312 539.054688 292.867188 537.542969 C 289.582031 536.792969 287.546875 535.929688 286.460938 535.171875 C 285.917969 534.796875 285.617188 534.460938 285.457031 534.207031 C 285.300781 533.949219 285.269531 533.78125 285.265625 533.597656 C 285.261719 533.355469 285.359375 533.03125 285.597656 532.65625 C 285.941406 532.097656 286.574219 531.496094 287.117188 531.082031 C 287.386719 530.871094 287.632812 530.703125 287.808594 530.589844 C 287.894531 530.535156 287.964844 530.492188 288.007812 530.464844 L 288.054688 530.4375 L 288.0625 530.429688 L 287.894531 530.140625 L 288.0625 530.429688 L 287.894531 530.140625 L 288.0625 530.429688 C 288.75 530.039062 288.988281 529.160156 288.597656 528.472656 C 288.203125 527.785156 287.324219 527.542969 286.636719 527.9375 " fill-opacity="1" fill-rule="nonzero"/><path fill="#f03744" d="M 337.875 343.246094 L 309.5 343.246094 L 309.5 356.265625 L 337.875 356.265625 C 340.917969 356.265625 343.382812 353.351562 343.382812 349.757812 C 343.382812 346.164062 340.917969 343.246094 337.875 343.246094 " fill-opacity="1" fill-rule="nonzero"/><path fill="#ef2e3d" d="M 315.007812 349.757812 C 315.007812 353.351562 312.542969 356.265625 309.5 356.265625 C 306.457031 356.265625 303.992188 353.351562 303.992188 349.757812 C 303.992188 346.164062 306.457031 343.246094 309.5 343.246094 C 312.542969 343.246094 315.007812 346.164062 315.007812 349.757812 " fill-opacity="1" fill-rule="nonzero"/><path fill="#4b415d" d="M 316.363281 356.425781 L 318.851562 356.425781 C 320.339844 354.996094 321.320312 352.542969 321.320312 349.757812 C 321.320312 347.027344 320.378906 344.621094 318.941406 343.175781 L 316.453125 343.175781 C 317.894531 344.617188 318.84375 347.023438 318.84375 349.757812 C 318.84375 352.550781 317.855469 355 316.363281 356.425781 " fill-opacity="1" fill-rule="nonzero"/><path fill="#4b415d" d="M 335.113281 356.425781 L 337.601562 356.425781 C 339.089844 354.996094 340.070312 352.542969 340.070312 349.757812 C 340.070312 347.027344 339.128906 344.621094 337.691406 343.175781 L 335.203125 343.175781 C 336.644531 344.617188 337.59375 347.023438 337.59375 349.757812 C 337.59375 352.550781 336.605469 355 335.113281 356.425781 " fill-opacity="1" fill-rule="nonzero"/><path fill="#ffffff" d="M 332.78125 523.265625 C 332.152344 528.824219 331.730469 532.582031 331.730469 532.582031 L 344.226562 532.582031 C 344.226562 532.582031 345.085938 528.796875 346.34375 523.265625 L 332.78125 523.265625 " fill-opacity="1" fill-rule="nonzero"/><path fill="#4b415d" d="M 336.238281 532.007812 C 337.035156 532.023438 343.664062 532.117188 343.640625 529.515625 C 343.621094 527.445312 351.632812 529.253906 354.355469 530.917969 C 357.011719 532.546875 359.175781 534.648438 357.496094 537.382812 L 330.546875 537.484375 C 330.546875 537.484375 330.828125 529.164062 332.082031 529.449219 C 333.582031 529.789062 332.117188 531.945312 336.238281 532.007812 " fill-opacity="1" fill-rule="nonzero"/><path fill="#3a77a8" d="M 324.621094 419.960938 L 329.832031 475.625 L 331.320312 526.324219 L 347.074219 526.324219 C 347.074219 526.324219 352.851562 478.367188 354.183594 474.582031 C 355.320312 471.355469 352.492188 429.859375 351.765625 419.960938 L 324.621094 419.960938 " fill-opacity="1" fill-rule="nonzero"/><path fill="#3a6fa3" d="M 337.289062 516.679688 C 336.242188 511.777344 336.972656 506.660156 337.273438 501.714844 C 337.625 495.941406 337.460938 490.140625 337.140625 484.367188 C 336.441406 471.753906 335.074219 459.15625 333.246094 446.660156 C 332.5 441.574219 331.476562 436.511719 330.847656 431.410156 C 330.375 427.589844 330.0625 423.75 329.425781 419.960938 L 324.621094 419.960938 L 329.832031 475.625 L 331.320312 526.324219 L 347.074219 526.324219 C 347.074219 526.324219 347.292969 524.511719 347.65625 521.574219 C 343.203125 521.753906 338.273438 521.304688 337.289062 516.679688 " fill-opacity="1" fill-rule="nonzero"/><path fill="#ffffff" d="M 304.941406 523.265625 C 304.316406 528.824219 303.890625 532.582031 303.890625 532.582031 L 316.390625 532.582031 C 316.390625 532.582031 317.25 528.796875 318.507812 523.265625 L 304.941406 523.265625 " fill-opacity="1" fill-rule="nonzero"/><path fill="#4b415d" d="M 308.398438 532.007812 C 309.199219 532.023438 315.824219 532.117188 315.804688 529.515625 C 315.785156 527.445312 323.792969 529.253906 326.515625 530.917969 C 329.171875 532.546875 331.339844 534.648438 329.65625 537.382812 L 302.707031 537.484375 C 302.707031 537.484375 302.992188 529.164062 304.242188 529.449219 C 305.742188 529.789062 304.277344 531.945312 308.398438 532.007812 " fill-opacity="1" fill-rule="nonzero"/><path fill="#4786ae" d="M 305.242188 417.949219 L 305.242188 475.527344 L 304.027344 526.324219 L 319.78125 526.324219 C 319.78125 526.324219 327.871094 478.25 328.800781 474.109375 C 329.628906 470.417969 338.953125 424.605469 339.535156 420.15625 L 305.242188 417.949219 " fill-opacity="1" fill-rule="nonzero"/><path fill="#3a77a8" d="M 310.382812 514.140625 C 310.441406 508.277344 311.460938 502.429688 311.585938 496.546875 C 311.71875 490.425781 311.652344 484.300781 311.714844 478.175781 C 311.84375 465.242188 312.226562 452.316406 312.335938 439.382812 C 312.390625 433.316406 312.578125 427.191406 312.28125 421.136719 C 312.238281 420.21875 312.167969 419.304688 312.09375 418.390625 L 305.242188 417.949219 L 305.242188 475.527344 L 304.027344 526.324219 L 319.78125 526.324219 C 319.78125 526.324219 320.167969 524.019531 320.785156 520.375 C 315.835938 520.722656 310.3125 520.574219 310.382812 514.140625 " fill-opacity="1" fill-rule="nonzero"/><path fill="#58afbf" d="M 310.597656 353.972656 C 310.597656 353.972656 322.847656 353.621094 325.714844 353.988281 C 325.714844 353.988281 316.453125 357.785156 312.488281 357.964844 C 308.527344 358.144531 310.597656 353.972656 310.597656 353.972656 " fill-opacity="1" fill-rule="nonzero"/><path fill="#58afbf" d="M 297.050781 418.855469 L 307.421875 419.765625 L 307.421875 410.8125 Z M 297.050781 418.855469 " fill-opacity="1" fill-rule="nonzero"/><path fill="#78d1ca" d="M 296.574219 419.054688 C 296.574219 419.054688 306.878906 417.953125 309.511719 403.402344 C 312.378906 387.53125 321.828125 353.972656 310.597656 353.972656 C 300.429688 353.972656 292.507812 367.847656 288.074219 376.933594 C 285.132812 382.957031 267.703125 416.6875 296.574219 419.054688 " fill-opacity="1" fill-rule="nonzero"/><path fill="#65bfc5" d="M 311.34375 354.042969 C 312.039062 356.109375 312.332031 358.488281 312.273438 361.164062 C 312.054688 370.828125 309.472656 380.8125 305.664062 389.671875 C 302.625 396.738281 297.695312 406.800781 289.308594 408.4375 C 286.785156 408.925781 283.582031 408.796875 280.746094 407.894531 C 282.195312 413.722656 286.652344 418.238281 296.574219 419.054688 C 296.574219 419.054688 306.878906 417.953125 309.511719 403.402344 C 312.3125 387.90625 321.378906 355.554688 311.34375 354.042969 " fill-opacity="1" fill-rule="nonzero"/><path fill="#f89a31" d="M 325.714844 353.988281 C 325.714844 353.988281 312.074219 353.234375 309.648438 361.574219 C 306.527344 372.320312 304.609375 408.917969 305.242188 419.960938 C 305.871094 431.003906 351.125 426.65625 353.371094 423.867188 C 355.746094 420.917969 355 379.652344 354.792969 376.539062 C 354.160156 367.074219 350.769531 353.988281 339.574219 353.988281 L 325.714844 353.988281 " fill-opacity="1" fill-rule="nonzero"/><path fill="#f79875" d="M 338.316406 344.453125 L 330.214844 341.214844 C 330.214844 348.410156 325.714844 353.988281 325.714844 353.988281 C 325.714844 353.988281 327.914062 363.628906 333.339844 363.628906 C 338.558594 363.628906 339.574219 353.988281 339.574219 353.988281 C 336.515625 349.671875 338.316406 344.453125 338.316406 344.453125 " fill-opacity="1" fill-rule="nonzero"/><path fill="#f47052" d="M 337.792969 348.167969 C 337.773438 346.03125 338.316406 344.453125 338.316406 344.453125 L 330.214844 341.214844 C 330.214844 343.804688 329.628906 346.179688 328.882812 348.167969 L 337.792969 348.167969 " fill-opacity="1" fill-rule="nonzero"/><path fill="#f79875" d="M 345.445312 320.398438 C 349.859375 325.96875 349.847656 348.382812 337.523438 347.152344 C 323.574219 345.757812 320.46875 333.257812 321.503906 327 C 323.085938 317.40625 337.011719 309.757812 345.445312 320.398438 " fill-opacity="1" fill-rule="nonzero"/><path fill="#ebdadf" d="M 333.074219 315.492188 C 333.074219 315.492188 337.039062 320.609375 333.910156 323.21875 C 329.945312 326.515625 332.921875 332.746094 330.21875 330.265625 C 328.863281 329.015625 329.394531 336.679688 329.945312 337.480469 C 331.199219 339.292969 331.164062 344.339844 329.847656 344.820312 C 328.21875 345.414062 322.96875 341.957031 321.378906 337.40625 C 319.078125 330.8125 320.890625 316.636719 333.074219 315.492188 " fill-opacity="1" fill-rule="nonzero"/><path fill="#f79875" d="M 332.828125 334.203125 C 332.542969 333.023438 330.339844 327.015625 327.792969 331.652344 C 326.132812 334.671875 330.730469 338.949219 331.976562 338.175781 C 333.273438 337.371094 333.066406 335.191406 332.828125 334.203125 " fill-opacity="1" fill-rule="nonzero"/><path fill="#f47052" d="M 331.355469 332.152344 C 331.347656 332.144531 331.109375 331.960938 330.769531 331.773438 C 330.429688 331.585938 329.992188 331.386719 329.546875 331.382812 C 329.277344 331.382812 328.980469 331.476562 328.773438 331.714844 C 328.570312 331.957031 328.460938 332.300781 328.445312 332.769531 L 328.441406 332.945312 C 328.4375 334.097656 328.878906 334.957031 329.4375 335.523438 C 330.003906 336.089844 330.667969 336.375 331.175781 336.429688 C 331.316406 336.441406 331.441406 336.339844 331.453125 336.199219 C 331.464844 336.058594 331.363281 335.933594 331.226562 335.917969 C 330.863281 335.886719 330.273438 335.648438 329.800781 335.164062 C 329.328125 334.679688 328.949219 333.96875 328.949219 332.945312 L 328.953125 332.792969 L 328.953125 332.789062 C 328.96875 332.386719 329.0625 332.160156 329.160156 332.050781 C 329.257812 331.9375 329.371094 331.894531 329.546875 331.890625 C 329.828125 331.890625 330.21875 332.046875 330.523438 332.21875 C 330.675781 332.300781 330.808594 332.386719 330.902344 332.449219 C 330.992188 332.515625 331.046875 332.554688 331.046875 332.554688 C 331.15625 332.640625 331.316406 332.617188 331.402344 332.507812 C 331.488281 332.398438 331.464844 332.234375 331.355469 332.152344 " fill-opacity="1" fill-rule="nonzero"/><path fill="#ebdadf" d="M 337.199219 329.84375 C 337.175781 329.820312 336.40625 328.992188 335.066406 328.992188 C 334.3125 328.988281 333.402344 329.261719 332.402344 330.054688 C 332.28125 330.152344 332.261719 330.324219 332.355469 330.441406 C 332.449219 330.558594 332.625 330.582031 332.742188 330.484375 C 333.667969 329.757812 334.445312 329.542969 335.066406 329.539062 C 335.613281 329.539062 336.050781 329.710938 336.351562 329.886719 C 336.5 329.972656 336.617188 330.058594 336.691406 330.121094 L 336.777344 330.199219 L 336.800781 330.222656 C 336.902344 330.332031 337.078125 330.335938 337.1875 330.230469 C 337.296875 330.128906 337.304688 329.957031 337.199219 329.84375 " fill-opacity="1" fill-rule="nonzero"/><path fill="#ebdadf" d="M 347.535156 329.875 C 347.511719 329.851562 346.738281 329.023438 345.398438 329.019531 C 344.648438 329.019531 343.734375 329.292969 342.734375 330.085938 C 342.613281 330.179688 342.59375 330.351562 342.691406 330.472656 C 342.785156 330.589844 342.957031 330.609375 343.078125 330.515625 C 344 329.785156 344.777344 329.570312 345.398438 329.566406 C 345.949219 329.570312 346.386719 329.742188 346.6875 329.914062 C 346.835938 330.003906 346.949219 330.089844 347.027344 330.152344 L 347.113281 330.226562 L 347.132812 330.246094 L 347.132812 330.25 C 347.238281 330.359375 347.410156 330.367188 347.523438 330.261719 C 347.632812 330.160156 347.640625 329.984375 347.535156 329.875 " fill-opacity="1" fill-rule="nonzero"/><path fill="#211b25" d="M 336.007812 332.453125 C 336.007812 333.28125 335.539062 333.953125 334.960938 333.953125 C 334.378906 333.953125 333.910156 333.28125 333.910156 332.453125 C 333.910156 331.625 334.378906 330.953125 334.960938 330.953125 C 335.539062 330.953125 336.007812 331.625 336.007812 332.453125 " fill-opacity="1" fill-rule="nonzero"/><path fill="#211b25" d="M 346.324219 332.484375 C 346.324219 333.3125 345.855469 333.984375 345.277344 333.984375 C 344.695312 333.984375 344.226562 333.3125 344.226562 332.484375 C 344.226562 331.652344 344.695312 330.984375 345.277344 330.984375 C 345.855469 330.984375 346.324219 331.652344 346.324219 332.484375 " fill-opacity="1" fill-rule="nonzero"/><path fill="#ebdadf" d="M 336.757812 339.960938 C 337.179688 341.234375 338.621094 342.71875 340.25 342.71875 C 341.960938 342.71875 343.675781 340.6875 343.742188 339.960938 L 336.757812 339.960938 " fill-opacity="1" fill-rule="nonzero"/><path fill="#f47052" d="M 339.15625 335.570312 C 339.316406 336.058594 339.863281 336.625 340.488281 336.625 C 341.140625 336.625 341.796875 335.847656 341.820312 335.570312 L 339.15625 335.570312 " fill-opacity="1" fill-rule="nonzero"/><path fill="#f47052" d="M 336.347656 327.273438 L 336.359375 327.261719 C 336.507812 327.164062 337.945312 326.257812 340.222656 326.261719 C 341.355469 326.261719 342.695312 326.480469 344.199219 327.136719 C 344.335938 327.199219 344.5 327.136719 344.558594 326.996094 C 344.621094 326.855469 344.558594 326.695312 344.417969 326.636719 C 342.84375 325.949219 341.425781 325.710938 340.222656 325.710938 C 337.632812 325.710938 336.0625 326.800781 336.035156 326.820312 C 335.90625 326.90625 335.878906 327.078125 335.964844 327.203125 C 336.050781 327.328125 336.222656 327.359375 336.347656 327.273438 " fill-opacity="1" fill-rule="nonzero"/><path fill="#f47052" d="M 336.308594 325.390625 C 336.941406 325.089844 338.257812 324.601562 340.066406 324.601562 C 341.148438 324.601562 342.40625 324.777344 343.808594 325.273438 C 343.953125 325.320312 344.109375 325.25 344.160156 325.105469 C 344.210938 324.960938 344.132812 324.804688 343.992188 324.753906 C 342.53125 324.238281 341.207031 324.050781 340.066406 324.050781 C 338.15625 324.050781 336.761719 324.566406 336.070312 324.894531 C 335.9375 324.960938 335.875 325.121094 335.941406 325.261719 C 336.007812 325.398438 336.171875 325.453125 336.308594 325.390625 " fill-opacity="1" fill-rule="nonzero"/><path fill="#f79875" d="M 291.277344 424.644531 C 291.277344 424.644531 287.472656 435.605469 295.523438 439.472656 C 302.050781 442.609375 299.335938 434.761719 299.480469 432.570312 C 299.542969 431.636719 304.683594 433.28125 301.992188 429.347656 C 300.339844 426.925781 298.011719 424.785156 297.488281 423.566406 C 296.972656 422.34375 291.277344 424.644531 291.277344 424.644531 " fill-opacity="1" fill-rule="nonzero"/><path fill="#f79875" d="M 289.625 402.09375 C 289.1875 408.925781 290.324219 417.617188 291.179688 424.957031 C 291.347656 426.425781 297.507812 424.382812 297.488281 423.566406 C 297.421875 420.230469 297.585938 410.757812 297.761719 404.066406 C 294.082031 402.703125 293.460938 402.722656 289.625 402.09375 " fill-opacity="1" fill-rule="nonzero"/><path fill="#f47052" d="M 371.515625 408.761719 C 371.515625 408.761719 375.085938 419.074219 383.285156 417.246094 C 389.929688 415.761719 383.359375 411.550781 382.191406 409.84375 C 381.695312 409.117188 386.445312 407.339844 382.167969 406 C 379.535156 405.175781 376.574219 404.949219 375.476562 404.351562 C 374.382812 403.75 371.515625 408.761719 371.515625 408.761719 " fill-opacity="1" fill-rule="nonzero"/><path fill="#f47052" d="M 357.167969 393.066406 C 360.824219 398.371094 366.722656 404.125 371.625 409.050781 C 372.601562 410.035156 375.964844 404.941406 375.476562 404.351562 C 373.484375 401.925781 368.09375 394.832031 364.324219 389.789062 C 360.816406 390.921875 360.371094 391.296875 357.167969 393.066406 " fill-opacity="1" fill-rule="nonzero"/><path fill="#f89a31" d="M 290.277344 390.492188 C 289.527344 393.789062 288.230469 401.867188 288.074219 403.726562 C 287.851562 406.410156 299.152344 408.476562 299.457031 406.039062 C 299.945312 402.160156 300.789062 396.546875 300.847656 395.289062 C 301.019531 391.667969 311.507812 376.414062 311.507812 376.414062 L 312.910156 357.0625 C 312.910156 357.0625 294.414062 372.324219 290.277344 390.492188 " fill-opacity="1" fill-rule="nonzero"/><path fill="#f89a31" d="M 367.925781 391.980469 C 361.027344 383.265625 360.570312 374.164062 357.78125 367.878906 C 353.453125 358.117188 345.953125 355.898438 345.953125 355.898438 C 345.445312 362.304688 350.898438 387.5 356.972656 395.910156 C 357.65625 396.855469 359.238281 399.632812 360 399.847656 C 362.257812 400.484375 368.742188 393.015625 367.925781 391.980469 " fill-opacity="1" fill-rule="nonzero"/><path fill="#58afbf" d="M 347.015625 356.316406 C 347.015625 356.316406 347.96875 379.457031 355.117188 392.925781 L 355.078125 397.65625 C 355.078125 397.65625 344.039062 385.691406 344.324219 354.90625 C 344.324219 354.90625 343.683594 354.59375 344.324219 354.90625 C 345.007812 355.242188 347.015625 356.316406 347.015625 356.316406 " fill-opacity="1" fill-rule="nonzero"/><path fill="#4786ae" d="M 319.964844 328.195312 C 314.191406 329.558594 317.046875 317.121094 337.460938 317.121094 C 350.300781 317.121094 357.914062 327.253906 352.542969 326.515625 C 344.851562 325.457031 339.210938 323.65625 319.964844 328.195312 " fill-opacity="1" fill-rule="nonzero"/><path fill="#4786ae" d="M 348.667969 321.003906 C 348.503906 314.621094 342.507812 309.488281 335.113281 309.488281 C 327.722656 309.488281 321.722656 314.621094 321.5625 321.003906 L 348.667969 321.003906 " fill-opacity="1" fill-rule="nonzero"/><path fill="#f68d29" d="M 336.140625 416.21875 C 331.792969 416.21875 327.335938 416.6875 323.003906 416.257812 C 313.613281 415.324219 314.484375 405.335938 314.617188 398.15625 C 314.699219 393.628906 314.730469 388.988281 313.304688 384.632812 C 312.726562 382.871094 311.652344 379.496094 309.421875 379.109375 C 306.683594 378.632812 304.578125 380.832031 303.324219 382.964844 C 299.015625 390.285156 296.785156 398.675781 296.121094 407.113281 C 297.929688 407.183594 299.351562 406.878906 299.457031 406.039062 C 299.945312 402.160156 300.789062 396.546875 300.847656 395.289062 C 300.9375 393.414062 303.792969 388.414062 306.53125 384.03125 C 305.390625 397.84375 304.867188 413.40625 305.242188 419.960938 C 305.871094 431.003906 351.125 426.65625 353.371094 423.867188 C 353.9375 423.160156 354.328125 420.261719 354.589844 416.21875 L 336.140625 416.21875 " fill-opacity="1" fill-rule="nonzero"/><path fill="#58afbf" d="M 305.054688 407.238281 C 305.054688 407.238281 325.070312 396.195312 318.640625 354.652344 L 321.730469 354.035156 C 321.730469 354.035156 332.109375 399.648438 305.054688 410.378906 L 305.054688 407.238281 " fill-opacity="1" fill-rule="nonzero"/><path fill="#3a6fa3" d="M 337.460938 314.519531 C 330.332031 314.519531 325.347656 316.035156 322.121094 317.953125 C 321.808594 318.894531 321.605469 319.875 321.570312 320.898438 C 324.769531 318.824219 329.914062 317.121094 337.460938 317.121094 C 341.894531 317.121094 345.703125 318.328125 348.574219 319.882812 C 348.429688 318.808594 348.113281 317.78125 347.664062 316.820312 C 344.917969 315.496094 341.445312 314.519531 337.460938 314.519531 " fill-opacity="1" fill-rule="nonzero"/><path fill="#58afbf" d="M 403.914062 362.46875 C 403.914062 362.46875 416.164062 362.121094 419.03125 362.488281 C 419.03125 362.488281 409.769531 366.285156 405.804688 366.460938 C 401.84375 366.640625 403.914062 362.46875 403.914062 362.46875 " fill-opacity="1" fill-rule="nonzero"/><path fill="#58afbf" d="M 390.367188 427.355469 L 400.738281 428.261719 L 400.738281 419.308594 Z M 390.367188 427.355469 " fill-opacity="1" fill-rule="nonzero"/><path fill="#78d1ca" d="M 389.890625 427.554688 C 389.890625 427.554688 400.195312 426.453125 402.828125 411.898438 C 405.695312 396.03125 415.144531 362.46875 403.914062 362.46875 C 393.75 362.46875 385.824219 376.34375 381.390625 385.433594 C 378.449219 391.457031 361.019531 425.1875 389.890625 427.554688 " fill-opacity="1" fill-rule="nonzero"/><path fill="#65bfc5" d="M 404.65625 362.542969 C 405.351562 364.605469 405.648438 366.984375 405.589844 369.660156 C 405.371094 379.328125 402.789062 389.308594 398.980469 398.167969 C 395.941406 405.238281 391.011719 415.296875 382.625 416.933594 C 380.101562 417.425781 376.898438 417.292969 374.0625 416.394531 C 375.511719 422.21875 379.96875 426.738281 389.890625 427.554688 C 389.890625 427.554688 400.195312 426.453125 402.828125 411.898438 C 405.628906 396.402344 414.691406 364.050781 404.65625 362.542969 " fill-opacity="1" fill-rule="nonzero"/><path fill="#f79875" d="M 415.988281 467.957031 C 415.988281 467.957031 414.351562 481.210938 410.992188 498.191406 C 410.371094 501.355469 404.273438 535.53125 404.273438 535.53125 L 394.054688 533.113281 C 394.054688 533.113281 395.042969 498.199219 395.222656 494.152344 C 395.707031 483.308594 395.742188 467.957031 395.742188 467.957031 L 415.988281 467.957031 " fill-opacity="1" fill-rule="nonzero"/><path fill="#f47052" d="M 448.238281 466.519531 C 448.238281 466.519531 456.242188 486.140625 454.738281 494.953125 C 452.066406 510.644531 449.128906 535.535156 449.128906 535.535156 L 439.476562 533.113281 C 439.476562 533.113281 437.652344 508.367188 437.855469 494.78125 C 438.023438 483.933594 429.578125 466.519531 429.578125 466.519531 L 448.238281 466.519531 " fill-opacity="1" fill-rule="nonzero"/><path fill="#4b415d" d="M 397.074219 424.324219 C 397.074219 424.324219 390.5 496.253906 391.964844 499.066406 C 392.636719 500.355469 408.445312 504.269531 414.203125 499.273438 C 415.214844 498.394531 421.074219 446.632812 422.261719 446.632812 C 423.503906 446.632812 435.660156 493.59375 436.097656 494.054688 C 439.507812 497.660156 455.492188 492.425781 456.644531 488.480469 C 456.875 487.6875 443.257812 433.277344 440.019531 424.101562 L 397.074219 424.324219 " fill-opacity="1" fill-rule="nonzero"/><path fill="#4b415d" d="M 444.988281 533.417969 C 445.78125 533.5 447.992188 533.011719 447.59375 530.828125 C 447.222656 528.804688 456.292969 530.929688 458.996094 532.582031 C 461.636719 534.199219 463.789062 536.285156 462.117188 539.003906 L 438.898438 539.105469 C 438.898438 539.105469 438.125 531.066406 439.589844 531.363281 C 441.089844 531.667969 440.59375 532.972656 444.988281 533.417969 " fill-opacity="1" fill-rule="nonzero"/><path fill="#4b415d" d="M 400.929688 533.417969 C 401.722656 533.5 403.9375 533.011719 403.535156 530.828125 C 403.164062 528.804688 412.238281 530.929688 414.941406 532.582031 C 417.582031 534.199219 419.734375 536.285156 418.0625 539.003906 L 393.808594 539.105469 C 393.808594 539.105469 393.101562 531.070312 394.101562 531.347656 C 395.578125 531.753906 396.535156 532.972656 400.929688 533.417969 " fill-opacity="1" fill-rule="nonzero"/><path fill="#423951" d="M 401.738281 488.480469 C 398.75 485.425781 399.089844 480.34375 399.53125 476.492188 C 400.195312 470.734375 400.765625 464.980469 401.371094 459.210938 C 402.589844 447.578125 404.097656 435.972656 404.535156 424.285156 L 397.074219 424.324219 C 397.074219 424.324219 390.5 496.253906 391.964844 499.066406 C 392.636719 500.355469 408.445312 504.269531 414.203125 499.273438 C 414.425781 499.082031 414.878906 496.453125 415.464844 492.460938 C 410.375 492.710938 405.222656 492.042969 401.738281 488.480469 " fill-opacity="1" fill-rule="nonzero"/><path fill="#423951" d="M 434.804688 489.648438 C 435.539062 492.304688 436.015625 493.96875 436.097656 494.054688 C 439.507812 497.660156 455.492188 492.425781 456.644531 488.480469 C 456.695312 488.300781 456.035156 485.351562 454.941406 480.804688 C 450.019531 484.0625 436.980469 489.132812 434.804688 489.648438 " fill-opacity="1" fill-rule="nonzero"/><path fill="#ebdadf" d="M 424.695312 354.074219 C 424.695312 354.074219 425.089844 357.558594 428.71875 355.582031 C 432.347656 353.605469 434.554688 355.496094 434.675781 351.789062 C 434.792969 348.082031 436.503906 349.03125 435.660156 346.148438 C 434.816406 343.269531 437.820312 342.585938 436.449219 340.230469 C 435.078125 337.878906 437.878906 337.5 435.074219 333.480469 C 432.269531 329.464844 431.738281 329.523438 431.839844 331.28125 C 431.941406 333.035156 422.253906 349.894531 424.695312 354.074219 " fill-opacity="1" fill-rule="nonzero"/><path fill="#f47052" d="M 470.390625 379.785156 C 470.390625 379.785156 475.484375 377.136719 473.667969 371.695312 C 471.855469 366.253906 469.171875 370.671875 469.015625 371.300781 C 468.859375 371.929688 467.09375 376.574219 468.492188 378.3125 C 469.882812 380.054688 470.390625 379.785156 470.390625 379.785156 " fill-opacity="1" fill-rule="nonzero"/><path fill="#9e8dce" d="M 434.328125 364.925781 C 434.328125 364.925781 440.679688 367.625 446.703125 375.785156 C 450.089844 380.371094 456.238281 379.1875 464.601562 374.140625 C 464.601562 374.140625 471.375 379.957031 470.871094 380.726562 C 469.195312 383.277344 463.195312 388.542969 448.507812 389.214844 C 432.90625 389.925781 437.484375 370.917969 434.328125 364.925781 " fill-opacity="1" fill-rule="nonzero"/><path fill="#3e4a7d" d="M 454.277344 380.789062 C 453.449219 380.9375 452.792969 380.363281 452.816406 379.523438 L 453.019531 372.832031 C 453.042969 371.988281 453.738281 371.164062 454.5625 371 L 469.632812 367.957031 C 470.460938 367.789062 471.113281 368.34375 471.089844 369.183594 L 470.871094 376.378906 C 470.847656 377.21875 470.148438 378.027344 469.320312 378.167969 L 454.277344 380.789062 " fill-opacity="1" fill-rule="nonzero"/><path fill="#bfa9db" d="M 416.5 361.4375 C 416.5 361.4375 407.375 361.082031 403.472656 372.785156 C 399.570312 384.492188 401.6875 403.304688 397.144531 418.203125 C 394.035156 428.375 415.789062 428.386719 421.976562 428.140625 C 426.292969 427.96875 434.65625 428.238281 439.789062 425.070312 C 440.972656 424.335938 440.917969 415.429688 439.957031 409.816406 C 437.652344 396.382812 443.730469 381.328125 438.367188 369.636719 C 436.289062 365.121094 431.855469 363.195312 426.816406 361.472656 L 416.5 361.4375 " fill-opacity="1" fill-rule="nonzero"/><path fill="#f79875" d="M 418.621094 353.367188 C 418.621094 353.367188 417.769531 358.808594 416.5 361.4375 C 416.5 361.4375 418.722656 367.535156 421.683594 367.625 C 423.257812 367.667969 426.054688 364.070312 426.816406 361.472656 C 426.816406 361.472656 425.238281 358.339844 425.234375 354.644531 L 418.621094 353.367188 " fill-opacity="1" fill-rule="nonzero"/><path fill="#f47052" d="M 425.390625 356.6875 C 425.296875 356.039062 425.234375 355.351562 425.234375 354.644531 L 418.621094 353.367188 C 418.621094 353.367188 418.382812 354.875 417.972656 356.6875 L 425.390625 356.6875 " fill-opacity="1" fill-rule="nonzero"/><path fill="#f79875" d="M 431.644531 328.519531 C 435.949219 333.953125 436.160156 355.390625 424.09375 354.859375 C 410.363281 354.253906 407.292969 341.058594 408.296875 334.957031 C 409.84375 325.601562 423.421875 318.148438 431.644531 328.519531 " fill-opacity="1" fill-rule="nonzero"/><path fill="#9e8dce" d="M 403.558594 414.292969 C 407.578125 402.78125 404.933594 390.765625 406.523438 379 C 407.289062 373.339844 408.132812 367.390625 411.328125 362.789062 C 408.585938 364.183594 405.394531 367.019531 403.472656 372.785156 C 399.570312 384.492188 401.097656 404.289062 396.550781 419.1875 C 393.445312 429.355469 415.789062 428.386719 421.976562 428.140625 C 426.292969 427.96875 434.65625 428.238281 439.789062 425.070312 C 440.300781 424.753906 440.582031 422.902344 440.65625 420.449219 C 429.863281 423.820312 398.636719 428.390625 403.558594 414.292969 " fill-opacity="1" fill-rule="nonzero"/><path fill="#ebdadf" d="M 424.164062 338.753906 C 424.144531 338.730469 423.429688 337.96875 422.191406 337.964844 C 421.496094 337.964844 420.652344 338.214844 419.730469 338.949219 C 419.621094 339.035156 419.601562 339.195312 419.6875 339.304688 C 419.773438 339.417969 419.9375 339.433594 420.042969 339.347656 C 420.898438 338.671875 421.617188 338.472656 422.191406 338.472656 C 422.695312 338.472656 423.101562 338.632812 423.378906 338.792969 C 423.519531 338.871094 423.625 338.953125 423.695312 339.011719 L 423.773438 339.082031 L 423.792969 339.097656 L 423.796875 339.101562 C 423.890625 339.203125 424.050781 339.207031 424.152344 339.113281 C 424.253906 339.015625 424.261719 338.855469 424.164062 338.753906 " fill-opacity="1" fill-rule="nonzero"/><path fill="#ebdadf" d="M 434.070312 338.753906 C 434.046875 338.730469 433.332031 337.96875 432.097656 337.964844 C 431.402344 337.964844 430.5625 338.214844 429.640625 338.949219 C 429.527344 339.035156 429.507812 339.195312 429.59375 339.304688 C 429.683594 339.417969 429.84375 339.433594 429.953125 339.347656 C 430.804688 338.671875 431.527344 338.472656 432.097656 338.472656 C 432.605469 338.472656 433.007812 338.632812 433.285156 338.792969 C 433.425781 338.871094 433.53125 338.953125 433.601562 339.011719 L 433.679688 339.082031 L 433.699219 339.101562 C 433.796875 339.203125 433.957031 339.207031 434.058594 339.113281 C 434.160156 339.015625 434.167969 338.855469 434.070312 338.753906 " fill-opacity="1" fill-rule="nonzero"/><path fill="#211b25" d="M 423.0625 341.164062 C 423.0625 341.929688 422.628906 342.546875 422.09375 342.546875 C 421.558594 342.546875 421.125 341.929688 421.125 341.164062 C 421.125 340.398438 421.558594 339.777344 422.09375 339.777344 C 422.628906 339.777344 423.0625 340.398438 423.0625 341.164062 " fill-opacity="1" fill-rule="nonzero"/><path fill="#211b25" d="M 432.953125 341.164062 C 432.953125 341.929688 432.523438 342.546875 431.984375 342.546875 C 431.449219 342.546875 431.015625 341.929688 431.015625 341.164062 C 431.015625 340.398438 431.449219 339.777344 431.984375 339.777344 C 432.523438 339.777344 432.953125 340.398438 432.953125 341.164062 " fill-opacity="1" fill-rule="nonzero"/><path fill="#ebdadf" d="M 423.753906 348.097656 C 424.144531 349.273438 425.472656 350.640625 426.980469 350.640625 C 428.554688 350.640625 430.140625 348.769531 430.203125 348.097656 L 423.753906 348.097656 " fill-opacity="1" fill-rule="nonzero"/><path fill="#f47052" d="M 425.964844 344.042969 C 426.113281 344.492188 426.621094 345.015625 427.195312 345.011719 C 427.800781 345.011719 428.40625 344.296875 428.429688 344.042969 L 425.964844 344.042969 " fill-opacity="1" fill-rule="nonzero"/><path fill="#f47052" d="M 423.371094 336.378906 L 423.425781 336.34375 C 423.703125 336.171875 424.988281 335.445312 426.953125 335.445312 C 428 335.445312 429.234375 335.648438 430.625 336.253906 C 430.753906 336.3125 430.902344 336.25 430.960938 336.121094 C 431.015625 335.996094 430.957031 335.84375 430.828125 335.789062 C 429.375 335.15625 428.0625 334.9375 426.953125 334.9375 C 424.5625 334.9375 423.109375 335.945312 423.082031 335.960938 C 422.96875 336.042969 422.941406 336.199219 423.019531 336.316406 C 423.097656 336.429688 423.257812 336.457031 423.371094 336.378906 " fill-opacity="1" fill-rule="nonzero"/><path fill="#f47052" d="M 423.335938 334.640625 C 423.925781 334.363281 425.140625 333.910156 426.8125 333.910156 C 427.808594 333.910156 428.972656 334.070312 430.265625 334.53125 C 430.398438 334.578125 430.542969 334.507812 430.589844 334.378906 C 430.636719 334.246094 430.566406 334.101562 430.4375 334.054688 C 429.085938 333.574219 427.863281 333.40625 426.8125 333.40625 C 425.046875 333.40625 423.757812 333.882812 423.121094 334.183594 C 422.992188 334.242188 422.9375 334.394531 423 334.519531 C 423.058594 334.648438 423.207031 334.703125 423.335938 334.640625 " fill-opacity="1" fill-rule="nonzero"/><path fill="#ebdadf" d="M 408.125 353.957031 C 409.25 354.394531 411.792969 357.703125 414.238281 355.8125 C 416.6875 353.917969 418.027344 357.636719 418.757812 354.871094 C 419.492188 352.101562 419.695312 351.867188 417.972656 349.894531 C 416.257812 347.921875 414.273438 337.660156 416.414062 338.367188 C 418.554688 339.078125 418.605469 338.695312 418.457031 336.878906 C 418.304688 335.066406 421.539062 334.652344 421.933594 331.515625 C 422.332031 328.382812 420.214844 325.757812 416.5 326.628906 C 412.785156 327.496094 407.894531 327.023438 407.261719 330.414062 C 406.632812 333.804688 403.636719 331.582031 404.265625 334.035156 C 404.898438 336.484375 402.058594 337.667969 403.242188 340.273438 C 404.425781 342.875 401.738281 344.058594 403.554688 347.292969 C 405.371094 350.527344 403.242188 352.066406 408.125 353.957031 " fill-opacity="1" fill-rule="nonzero"/><path fill="#4786ae" d="M 405.277344 335.578125 C 399.503906 336.9375 402.359375 324.5 422.777344 324.5 C 435.617188 324.5 443.230469 334.636719 437.859375 333.894531 C 430.167969 332.835938 424.527344 331.035156 405.277344 335.578125 " fill-opacity="1" fill-rule="nonzero"/><path fill="#4786ae" d="M 433.980469 328.382812 C 433.820312 322 427.820312 316.867188 420.425781 316.867188 C 413.035156 316.867188 407.035156 322 406.875 328.382812 L 433.980469 328.382812 " fill-opacity="1" fill-rule="nonzero"/><path fill="#3a6fa3" d="M 422.777344 321.894531 C 415.644531 321.894531 410.664062 323.414062 407.4375 325.332031 C 407.121094 326.273438 406.921875 327.253906 406.882812 328.277344 C 410.082031 326.203125 415.226562 324.5 422.777344 324.5 C 427.210938 324.5 431.019531 325.710938 433.886719 327.261719 C 433.742188 326.1875 433.429688 325.164062 432.976562 324.199219 C 430.230469 322.875 426.757812 321.894531 422.777344 321.894531 " fill-opacity="1" fill-rule="nonzero"/><path fill="#f79875" d="M 419.21875 341.902344 C 418.960938 340.816406 416.921875 335.265625 414.570312 339.550781 C 413.035156 342.339844 417.28125 346.285156 418.4375 345.570312 C 419.628906 344.828125 419.441406 342.8125 419.21875 341.902344 " fill-opacity="1" fill-rule="nonzero"/><path fill="#f47052" d="M 417.859375 340.007812 C 417.855469 340.003906 417.628906 339.835938 417.320312 339.660156 C 417.003906 339.488281 416.601562 339.304688 416.191406 339.300781 C 415.941406 339.296875 415.667969 339.382812 415.476562 339.609375 C 415.285156 339.828125 415.1875 340.148438 415.171875 340.582031 L 415.171875 340.578125 L 415.167969 340.742188 C 415.164062 341.804688 415.570312 342.597656 416.089844 343.121094 C 416.609375 343.648438 417.226562 343.910156 417.695312 343.957031 C 417.824219 343.96875 417.941406 343.875 417.949219 343.746094 C 417.960938 343.617188 417.867188 343.503906 417.738281 343.488281 C 417.40625 343.460938 416.859375 343.238281 416.425781 342.792969 C 415.984375 342.347656 415.636719 341.683594 415.636719 340.742188 L 415.640625 340.601562 L 415.640625 340.597656 C 415.652344 340.226562 415.742188 340.019531 415.832031 339.914062 C 415.921875 339.8125 416.027344 339.773438 416.191406 339.769531 C 416.449219 339.765625 416.8125 339.914062 417.089844 340.070312 C 417.230469 340.148438 417.355469 340.226562 417.4375 340.285156 C 417.527344 340.34375 417.574219 340.378906 417.574219 340.378906 C 417.675781 340.460938 417.824219 340.441406 417.902344 340.339844 C 417.980469 340.234375 417.960938 340.089844 417.863281 340.007812 L 417.859375 340.007812 " fill-opacity="1" fill-rule="nonzero"/><path fill="#58afbf" d="M 433.050781 364.117188 C 433.050781 364.117188 435.855469 383.53125 439.582031 397.894531 C 439.683594 398.28125 439.519531 403.410156 439.414062 403.273438 C 436.003906 398.746094 430.125 386 430.339844 362.808594 C 430.339844 362.808594 429.648438 362.636719 430.339844 362.808594 C 431.03125 362.976562 433.050781 364.117188 433.050781 364.117188 " fill-opacity="1" fill-rule="nonzero"/><path fill="#58afbf" d="M 397.527344 414.808594 C 397.527344 414.808594 418.226562 404.070312 411.796875 362.527344 C 411.796875 362.527344 412.492188 362.191406 413.101562 361.9375 C 413.632812 361.714844 414.539062 361.652344 414.539062 361.652344 C 414.539062 361.652344 423.796875 407.8125 396.742188 418.539062 L 397.527344 414.808594 " fill-opacity="1" fill-rule="nonzero"/><path fill="#f68c81" d="M 449.101562 386.765625 C 449.101562 386.765625 459.46875 384.980469 459.332031 377.328125 C 459.226562 371.125 453.765625 376.484375 452.035156 377.214844 C 451.296875 377.523438 451.074219 372.699219 449.089844 376.269531 C 447.875 378.464844 447.132812 381.070312 446.398438 381.941406 C 445.660156 382.808594 449.101562 386.765625 449.101562 386.765625 " fill-opacity="1" fill-rule="nonzero"/><path fill="#9e8dce" d="M 404.226562 393.710938 C 404.226562 393.710938 400.828125 378.578125 404.898438 369.417969 C 407.578125 363.382812 413.496094 386.179688 417.992188 389.019531 C 422.484375 391.855469 441.808594 383.070312 446.292969 380.8125 C 448.375 379.765625 451.792969 386.765625 450.480469 388.496094 C 448.390625 391.246094 426.351562 406.894531 419.84375 406.84375 C 409.128906 406.757812 406.828125 400.808594 404.226562 393.710938 " fill-opacity="1" fill-rule="nonzero"/><path fill="#cad6f0" d="M 280.40625 278.949219 C 271.570312 278.949219 265.417969 272.886719 269.203125 263.4375 C 271.726562 257.195312 276.933594 253.808594 282.929688 255.769531 C 286.558594 257.195312 288.453125 259.511719 292.550781 258.980469 C 297.601562 258.265625 299.8125 253.09375 304.226562 251.492188 C 306.4375 250.777344 310.855469 250.777344 313.0625 251.667969 C 315.113281 252.558594 316.375 255.234375 317.953125 256.835938 C 322.6875 261.476562 328.996094 259.871094 334.203125 257.375 C 338.9375 254.878906 346.511719 253.273438 349.347656 259.15625 C 351.558594 263.613281 351.558594 270.210938 348.71875 274.492188 C 345.5625 278.949219 338.621094 278.949219 334.046875 278.949219 C 326.628906 278.949219 319.375 278.769531 311.957031 278.589844 C 301.386719 278.234375 290.816406 278.769531 280.246094 278.769531 " fill-opacity="1" fill-rule="nonzero"/><path fill="#a6c1e8" d="M 274.949219 267.496094 L 274.957031 267.488281 C 275.035156 267.394531 275.9375 266.339844 277.261719 265.34375 C 278.585938 264.335938 280.316406 263.425781 281.964844 263.4375 C 282.984375 263.445312 283.992188 263.742188 285.0625 264.621094 C 286.628906 265.929688 288.503906 266.453125 290.375 266.449219 C 293.050781 266.441406 295.761719 265.445312 298.132812 264.210938 C 300.503906 262.964844 302.527344 261.464844 303.789062 260.339844 C 304.800781 259.433594 305.699219 258.820312 306.488281 258.441406 C 307.273438 258.0625 307.945312 257.914062 308.554688 257.910156 C 309.160156 257.914062 309.71875 258.058594 310.300781 258.339844 C 311.164062 258.765625 312.058594 259.519531 312.996094 260.496094 C 313.929688 261.472656 314.902344 262.652344 315.980469 263.886719 C 317.164062 265.246094 318.796875 266.265625 320.671875 266.953125 C 322.546875 267.640625 324.679688 267.996094 326.894531 267.996094 C 331.414062 267.996094 336.328125 266.523438 340.183594 263.207031 C 340.582031 262.867188 340.625 262.269531 340.285156 261.871094 C 339.941406 261.476562 339.347656 261.429688 338.949219 261.773438 C 335.5 264.75 331.007812 266.105469 326.894531 266.101562 C 324.878906 266.101562 322.960938 265.777344 321.324219 265.175781 C 319.683594 264.578125 318.328125 263.703125 317.40625 262.640625 C 316 261.03125 314.722656 259.4375 313.339844 258.191406 C 312.648438 257.570312 311.925781 257.03125 311.132812 256.644531 C 310.34375 256.253906 309.476562 256.019531 308.554688 256.019531 C 307.628906 256.019531 306.660156 256.253906 305.667969 256.734375 C 304.667969 257.214844 303.636719 257.9375 302.523438 258.929688 C 301.394531 259.945312 299.460938 261.378906 297.253906 262.53125 C 295.050781 263.691406 292.566406 264.5625 290.375 264.554688 C 288.832031 264.550781 287.460938 264.152344 286.273438 263.167969 C 284.902344 262.019531 283.386719 261.539062 281.964844 261.546875 C 280.769531 261.546875 279.644531 261.863281 278.636719 262.316406 C 277.125 262.996094 275.859375 263.984375 274.957031 264.796875 C 274.050781 265.613281 273.511719 266.261719 273.492188 266.289062 C 273.15625 266.691406 273.214844 267.289062 273.617188 267.621094 C 274.019531 267.953125 274.617188 267.898438 274.949219 267.496094 " fill-opacity="1" fill-rule="nonzero"/><path fill="#cad6f0" d="M 391.933594 297.976562 C 383.097656 297.976562 376.945312 291.917969 380.730469 282.464844 C 383.253906 276.226562 388.460938 272.835938 394.457031 274.800781 C 398.085938 276.226562 399.980469 278.542969 404.082031 278.007812 C 409.128906 277.292969 411.339844 272.125 415.757812 270.519531 C 417.964844 269.808594 422.382812 269.808594 424.589844 270.699219 C 426.644531 271.589844 427.90625 274.265625 429.480469 275.867188 C 434.214844 280.507812 440.527344 278.898438 445.734375 276.402344 C 450.464844 273.90625 458.039062 272.304688 460.878906 278.1875 C 463.085938 282.644531 463.085938 289.242188 460.246094 293.519531 C 457.089844 297.976562 450.152344 297.976562 445.574219 297.976562 C 438.160156 297.976562 430.902344 297.800781 423.488281 297.621094 C 412.914062 297.265625 402.347656 297.800781 391.777344 297.800781 " fill-opacity="1" fill-rule="nonzero"/><path fill="#a6c1e8" d="M 386.480469 286.523438 L 386.484375 286.515625 C 386.5625 286.421875 387.464844 285.367188 388.789062 284.371094 C 390.113281 283.363281 391.84375 282.453125 393.496094 282.464844 C 394.511719 282.46875 395.523438 282.769531 396.589844 283.648438 C 398.15625 284.957031 400.035156 285.480469 401.90625 285.476562 C 404.582031 285.46875 407.292969 284.472656 409.664062 283.234375 C 412.03125 281.992188 414.058594 280.492188 415.316406 279.371094 C 416.332031 278.460938 417.226562 277.847656 418.015625 277.46875 C 418.804688 277.085938 419.476562 276.941406 420.085938 276.941406 C 420.691406 276.941406 421.246094 277.085938 421.828125 277.367188 C 422.695312 277.792969 423.589844 278.546875 424.523438 279.523438 C 425.460938 280.5 426.433594 281.679688 427.507812 282.914062 C 428.695312 284.273438 430.328125 285.292969 432.199219 285.980469 C 434.078125 286.667969 436.207031 287.023438 438.425781 287.023438 C 442.941406 287.023438 447.859375 285.550781 451.714844 282.234375 C 452.109375 281.894531 452.15625 281.296875 451.8125 280.898438 C 451.472656 280.503906 450.875 280.457031 450.480469 280.800781 C 447.03125 283.777344 442.539062 285.132812 438.425781 285.132812 C 436.410156 285.132812 434.488281 284.804688 432.851562 284.203125 C 431.210938 283.605469 429.859375 282.730469 428.933594 281.667969 C 427.53125 280.058594 426.25 278.464844 424.867188 277.21875 C 424.175781 276.597656 423.457031 276.058594 422.664062 275.671875 C 421.875 275.28125 421.007812 275.046875 420.085938 275.046875 C 419.15625 275.046875 418.191406 275.285156 417.195312 275.761719 C 416.199219 276.242188 415.164062 276.964844 414.054688 277.957031 C 412.925781 278.96875 410.988281 280.40625 408.785156 281.558594 C 406.578125 282.71875 404.09375 283.589844 401.90625 283.582031 C 400.363281 283.578125 398.992188 283.179688 397.800781 282.195312 C 396.429688 281.046875 394.917969 280.566406 393.496094 280.574219 C 392.296875 280.574219 391.171875 280.890625 390.167969 281.34375 C 388.65625 282.023438 387.390625 283.011719 386.484375 283.824219 C 385.582031 284.640625 385.042969 285.289062 385.019531 285.316406 C 384.6875 285.71875 384.742188 286.316406 385.148438 286.648438 C 385.546875 286.980469 386.144531 286.925781 386.480469 286.523438 " fill-opacity="1" fill-rule="nonzero"/></svg>