<svg xmlns="http://www.w3.org/2000/svg" xmlns:xlink="http://www.w3.org/1999/xlink" width="1080" zoomAndPan="magnify" viewBox="0 0 810 809.999993" height="1080" preserveAspectRatio="xMidYMid meet" version="1.0"><defs><clipPath id="f0b643ffa8"><path d="M 210 257.335938 L 567 257.335938 L 567 506 L 210 506 Z M 210 257.335938 " clip-rule="nonzero"/></clipPath></defs><rect x="-81" width="972" fill="#ffffff" y="-80.999999" height="971.999992" fill-opacity="1"/><rect x="-81" width="972" fill="#ffffff" y="-80.999999" height="971.999992" fill-opacity="1"/><path fill="#f9b132" d="M 538.539062 313.144531 C 538.539062 309.914062 534.863281 307.277344 530.335938 307.277344 C 525.8125 307.277344 522.136719 309.914062 522.136719 313.144531 C 522.136719 313.539062 522.195312 313.9375 522.308594 314.304688 C 522.308594 314.332031 522.335938 314.363281 522.335938 314.390625 C 525.757812 326.632812 524.597656 337.710938 519.167969 349.949219 C 520.640625 349.242188 522.109375 348.621094 523.636719 348.109375 C 536.078125 342.015625 538.539062 331.023438 538.539062 313.144531 Z M 538.539062 313.144531 " fill-opacity="1" fill-rule="nonzero"/><path fill="#f9b132" d="M 544.476562 397.355469 C 544.476562 388.828125 538.875 381.628906 531.15625 379.191406 C 533.109375 376.21875 534.269531 372.617188 534.269531 368.765625 C 534.269531 359.585938 527.765625 351.90625 519.113281 350.121094 L 519.167969 349.949219 C 519.425781 348.761719 519.535156 347.542969 519.535156 346.296875 C 519.535156 336.238281 511.421875 328.105469 501.386719 328.105469 C 496.917969 328.105469 492.789062 329.746094 489.621094 332.46875 C 487.53125 326.148438 481.59375 321.617188 474.582031 321.617188 C 465.84375 321.617188 458.746094 328.699219 458.746094 337.484375 C 456.289062 335.699219 453.402344 334.421875 450.125 334.421875 C 443.648438 334.421875 438.164062 338.53125 436.070312 344.285156 L 436.042969 344.285156 C 433.554688 342.441406 430.472656 341.335938 427.136719 341.335938 C 424.734375 341.335938 422.472656 341.902344 420.464844 342.921875 L 420.464844 342.894531 C 434.035156 318.894531 431.519531 297.21875 412.859375 277.867188 C 412.859375 274.609375 410.199219 271.972656 406.949219 271.972656 C 403.699219 271.972656 401.066406 274.609375 401.066406 277.867188 C 391.226562 289.910156 388.882812 310.394531 379.070312 325.382812 C 373.527344 333.828125 369.542969 337.484375 366.121094 340.796875 C 366.148438 324.902344 356.820312 315.070312 355.121094 302.941406 C 352.917969 287.101562 357.523438 270.753906 350.289062 266.078125 C 350.289062 262.820312 347.65625 260.15625 344.40625 260.15625 C 341.15625 260.15625 338.496094 262.820312 338.496094 266.078125 C 319.609375 281.378906 313.164062 302.914062 316.386719 329.378906 C 312.597656 325.667969 309.175781 321.8125 306.828125 317.59375 C 299.449219 304.273438 293.710938 282.683594 279.375 274.152344 C 279.375 270.894531 276.71875 268.261719 273.464844 268.261719 C 270.214844 268.261719 267.585938 270.894531 267.585938 274.152344 C 267.585938 274.976562 267.753906 275.742188 268.039062 276.449219 L 267.585938 276.476562 C 255.371094 291.242188 254.097656 308.976562 262.890625 329.40625 C 253.503906 313.878906 242.957031 296.90625 229.5 292.261719 C 229.5 289 226.871094 286.367188 223.589844 286.367188 C 220.339844 286.367188 217.710938 289 217.710938 292.261719 C 217.710938 293.222656 217.933594 294.101562 218.332031 294.894531 C 203.96875 315.664062 222.316406 377.011719 260.289062 397.101562 C 243.210938 414.726562 250.367188 450.425781 263.851562 473.011719 C 277.652344 496.1875 301.796875 505.511719 311.183594 501.855469 C 313.21875 501.0625 314.886719 500.042969 316.246094 498.878906 C 320.089844 495.621094 325.460938 495.027344 329.929688 497.351562 C 331.484375 498.171875 333.351562 498.824219 335.5 499.164062 C 345.085938 500.609375 365.246094 487.40625 374.292969 463.6875 C 382.464844 484.769531 402.933594 499.757812 426.882812 499.757812 C 453.800781 499.757812 476.304688 480.832031 481.902344 455.554688 C 483.769531 456.179688 485.777344 456.519531 487.839844 456.519531 C 497.085938 456.519531 504.804688 449.890625 506.503906 441.105469 C 507.660156 441.332031 508.878906 441.445312 510.09375 441.445312 C 520.554688 441.445312 529.066406 432.917969 529.066406 422.402344 C 529.066406 420.25 528.699219 418.152344 528.019531 416.226562 L 528.046875 416.226562 C 537.320312 414.980469 544.476562 407.019531 544.476562 397.355469 Z M 544.476562 397.355469 " fill-opacity="1" fill-rule="nonzero"/><path fill="#604533" d="M 406.949219 271.972656 C 410.199219 271.972656 412.859375 274.609375 412.859375 277.867188 C 412.859375 281.125 410.199219 283.789062 406.949219 283.789062 C 403.699219 283.789062 401.066406 281.125 401.066406 277.867188 C 401.066406 274.609375 403.699219 271.972656 406.949219 271.972656 Z M 406.949219 271.972656 " fill-opacity="1" fill-rule="nonzero"/><path fill="#604533" d="M 344.40625 260.15625 C 347.65625 260.15625 350.289062 262.820312 350.289062 266.078125 C 350.289062 269.335938 347.65625 271.972656 344.40625 271.972656 C 341.15625 271.972656 338.496094 269.335938 338.496094 266.078125 C 338.496094 262.820312 341.15625 260.15625 344.40625 260.15625 Z M 344.40625 260.15625 " fill-opacity="1" fill-rule="nonzero"/><path fill="#604533" d="M 273.464844 268.261719 C 276.71875 268.261719 279.375 270.894531 279.375 274.152344 C 279.375 277.414062 276.71875 280.078125 273.464844 280.078125 C 271.035156 280.078125 268.941406 278.574219 268.039062 276.449219 C 267.753906 275.742188 267.585938 274.976562 267.585938 274.152344 C 267.585938 270.894531 270.214844 268.261719 273.464844 268.261719 Z M 273.464844 268.261719 " fill-opacity="1" fill-rule="nonzero"/><path fill="#604533" d="M 218.332031 294.894531 C 217.933594 294.101562 217.710938 293.222656 217.710938 292.261719 C 217.710938 289 220.339844 286.367188 223.589844 286.367188 C 226.871094 286.367188 229.5 289 229.5 292.261719 C 229.5 295.519531 226.871094 298.152344 223.589844 298.152344 C 221.273438 298.152344 219.292969 296.824219 218.332031 294.894531 Z M 218.332031 294.894531 " fill-opacity="1" fill-rule="nonzero"/><path fill="#ef9d26" d="M 338.015625 353.492188 C 334.285156 344.707031 324.53125 337.398438 316.386719 329.378906 C 313.164062 302.914062 319.609375 281.378906 338.496094 266.078125 C 338.496094 269.335938 341.15625 271.972656 344.40625 271.972656 C 347.65625 271.972656 350.289062 269.335938 350.289062 266.078125 C 357.527344 270.753906 352.917969 287.101562 355.121094 302.941406 C 356.820312 315.070312 366.148438 324.902344 366.121094 340.796875 L 366.121094 340.828125 C 363.492188 343.347656 361.230469 345.730469 358.855469 349.949219 C 353.738281 359.074219 358.855469 366.78125 358.855469 366.78125 C 353.792969 369.332031 350.289062 374.746094 350.289062 380.75 C 347.375 380.183594 344.605469 380.128906 342.003906 380.441406 C 342.003906 380.441406 343.472656 366.328125 338.015625 353.492188 Z M 338.015625 353.492188 " fill-opacity="1" fill-rule="nonzero"/><path fill="#ffc05a" d="M 308.015625 391.378906 C 294.050781 391.007812 278.949219 379.902344 261.589844 395.824219 C 261.136719 396.222656 260.714844 396.648438 260.289062 397.101562 C 222.316406 377.011719 203.96875 315.664062 218.332031 294.894531 C 219.292969 296.824219 221.273438 298.152344 223.589844 298.152344 C 226.871094 298.152344 229.5 295.519531 229.5 292.261719 C 242.957031 296.90625 253.503906 313.878906 262.890625 329.40625 C 269.535156 340.402344 275.613281 350.660156 281.75 355.25 C 296.507812 366.328125 305.671875 359.753906 317.148438 365.507812 C 328.601562 371.257812 334.03125 382.421875 334.03125 382.421875 C 325.972656 385.371094 318.929688 390.414062 311.269531 391.261719 C 310.195312 391.378906 309.121094 391.40625 308.015625 391.378906 Z M 308.015625 391.378906 " fill-opacity="1" fill-rule="nonzero"/><path fill="#7f5d46" d="M 530.335938 319.007812 C 534.863281 319.007812 538.539062 316.375 538.539062 313.144531 C 538.539062 331.023438 536.078125 342.015625 523.636719 348.109375 C 522.109375 348.621094 520.640625 349.242188 519.167969 349.949219 C 524.597656 337.710938 525.757812 326.632812 522.335938 314.390625 C 523.128906 317.027344 526.40625 319.007812 530.335938 319.007812 Z M 530.335938 319.007812 " fill-opacity="1" fill-rule="nonzero"/><path fill="#604533" d="M 530.335938 307.277344 C 534.863281 307.277344 538.539062 309.914062 538.539062 313.144531 C 538.539062 316.375 534.863281 319.007812 530.335938 319.007812 C 526.40625 319.007812 523.128906 317.027344 522.335938 314.390625 C 522.335938 314.363281 522.308594 314.332031 522.308594 314.304688 C 522.195312 313.9375 522.136719 313.539062 522.136719 313.144531 C 522.136719 309.914062 525.8125 307.277344 530.335938 307.277344 Z M 530.335938 307.277344 " fill-opacity="1" fill-rule="nonzero"/><path fill="#5c155e" d="M 510.375 350.375 C 511.789062 353.039062 512.582031 356.070312 512.582031 359.300781 C 512.582031 364.542969 510.488281 369.246094 507.097656 372.675781 C 503.648438 376.1875 498.867188 378.34375 493.582031 378.34375 C 492.449219 378.34375 491.375 378.257812 490.300781 378.03125 C 483.882812 376.953125 478.566406 372.589844 476.109375 366.753906 C 475.117188 364.457031 474.582031 361.9375 474.582031 359.300781 C 474.582031 355.449219 475.710938 351.847656 477.691406 348.875 C 479.191406 346.578125 481.195312 344.625 483.515625 343.152344 C 486.429688 341.308594 489.878906 340.261719 493.582031 340.261719 C 500.847656 340.261719 507.179688 344.367188 510.375 350.375 Z M 510.375 350.375 " fill-opacity="1" fill-rule="nonzero"/><path fill="#5c155e" d="M 455.101562 379.164062 C 454.054688 381.601562 453.488281 384.292969 453.488281 387.097656 C 453.488281 389.5625 453.941406 391.945312 454.734375 394.125 C 450.320312 391.605469 445.542969 389.675781 440.480469 388.429688 L 440.480469 388.402344 C 440.285156 387.464844 440.199219 386.503906 440.199219 385.511719 C 440.199219 378.996094 444.328125 373.441406 450.125 371.371094 C 451.113281 374.375 452.867188 377.039062 455.101562 379.164062 Z M 455.101562 379.164062 " fill-opacity="1" fill-rule="nonzero"/><path fill="#682168" d="M 505.03125 410.390625 L 505.03125 410.417969 C 504.410156 418.324219 499.011719 424.871094 491.6875 427.109375 C 489.933594 427.675781 488.039062 427.957031 486.089844 427.957031 C 484.308594 427.957031 482.582031 427.703125 480.972656 427.25 L 480.941406 427.25 C 478.765625 419.769531 475.0625 412.941406 470.199219 407.101562 C 471.359375 407.300781 472.546875 407.414062 473.761719 407.414062 C 479.246094 407.414062 484.195312 405.234375 487.839844 401.71875 C 491.207031 406.960938 497.117188 410.445312 503.816406 410.445312 C 504.210938 410.445312 504.636719 410.445312 505.03125 410.390625 Z M 505.03125 410.390625 " fill-opacity="1" fill-rule="nonzero"/><path fill="#682168" d="M 449.132812 365.308594 C 449.132812 367.433594 449.472656 369.472656 450.125 371.371094 C 444.328125 373.441406 440.199219 378.996094 440.199219 385.511719 C 440.199219 386.503906 440.285156 387.464844 440.480469 388.402344 L 440.480469 388.429688 C 437.371094 387.636719 434.175781 387.125 430.898438 386.929688 L 430.898438 386.898438 C 427.644531 384.125 425.582031 380.015625 425.582031 375.425781 C 425.582031 373.015625 426.148438 370.75 427.136719 368.765625 C 429.484375 364.003906 434.289062 360.660156 439.886719 360.40625 C 442.320312 362.730469 445.570312 364.203125 449.164062 364.429688 C 449.132812 364.714844 449.132812 365.023438 449.132812 365.308594 Z M 449.132812 365.308594 " fill-opacity="1" fill-rule="nonzero"/><path fill="#682168" d="M 403.214844 376.757812 L 403.246094 376.757812 C 402.933594 377.945312 402.765625 379.191406 402.765625 380.46875 C 402.765625 384.320312 404.207031 387.835938 406.609375 390.5 C 399.597656 393.21875 393.292969 397.269531 387.976562 402.371094 C 384.441406 399.621094 382.179688 395.316406 382.179688 390.5 C 382.179688 387.238281 383.226562 384.179688 385.007812 381.714844 C 387.410156 378.371094 391.199219 376.046875 395.527344 375.59375 C 396.0625 375.507812 396.601562 375.480469 397.164062 375.480469 C 399.316406 375.480469 401.351562 375.960938 403.214844 376.757812 Z M 403.214844 376.757812 " fill-opacity="1" fill-rule="nonzero"/><path fill="#752c73" d="M 518.6875 379.589844 C 521.289062 382.820312 522.816406 386.957031 522.816406 391.433594 C 522.816406 396.675781 520.726562 401.351562 517.332031 404.808594 C 514.164062 408.007812 509.839844 410.105469 505.03125 410.390625 C 504.636719 410.445312 504.210938 410.445312 503.816406 410.445312 C 497.117188 410.445312 491.207031 406.960938 487.839844 401.71875 C 485.917969 398.746094 484.816406 395.230469 484.816406 391.433594 C 484.816406 386.21875 486.910156 381.488281 490.300781 378.058594 L 490.300781 378.03125 C 491.375 378.257812 492.449219 378.34375 493.582031 378.34375 C 498.867188 378.34375 503.648438 376.1875 507.097656 372.675781 C 511.761719 373.496094 515.863281 376.019531 518.6875 379.589844 Z M 518.6875 379.589844 " fill-opacity="1" fill-rule="nonzero"/><path fill="#752c73" d="M 476.109375 366.753906 L 475.824219 366.894531 C 475.148438 366.808594 474.46875 366.78125 473.761719 366.78125 C 465.363281 366.78125 458.183594 371.882812 455.101562 379.164062 C 452.867188 377.039062 451.113281 374.375 450.125 371.371094 C 449.472656 369.472656 449.132812 367.433594 449.132812 365.308594 C 449.132812 365.023438 449.132812 364.714844 449.164062 364.429688 C 449.53125 356.410156 454.84375 349.695312 462.113281 347.289062 C 464.007812 346.636719 466.015625 346.296875 468.132812 346.296875 C 471.613281 346.296875 474.890625 347.230469 477.691406 348.875 C 475.710938 351.847656 474.582031 355.449219 474.582031 359.300781 C 474.582031 361.9375 475.117188 364.457031 476.109375 366.753906 Z M 476.109375 366.753906 " fill-opacity="1" fill-rule="nonzero"/><path fill="#752c73" d="M 430.898438 386.898438 L 430.898438 386.929688 C 429.566406 386.816406 428.238281 386.757812 426.882812 386.757812 C 419.730469 386.757812 412.886719 388.089844 406.609375 390.5 C 404.207031 387.835938 402.765625 384.320312 402.765625 380.46875 C 402.765625 379.191406 402.933594 377.945312 403.246094 376.757812 C 404.6875 371.003906 409.4375 366.613281 415.347656 365.675781 C 416.136719 365.507812 416.929688 365.449219 417.75 365.449219 C 421.285156 365.449219 424.5625 366.667969 427.136719 368.765625 C 426.148438 370.75 425.582031 373.015625 425.582031 375.425781 C 425.582031 380.015625 427.644531 384.125 430.898438 386.898438 Z M 430.898438 386.898438 " fill-opacity="1" fill-rule="nonzero"/><path fill="#752c73" d="M 384.980469 381.6875 L 385.007812 381.714844 C 383.226562 384.179688 382.179688 387.238281 382.179688 390.5 C 382.179688 395.316406 384.441406 399.621094 387.976562 402.371094 C 384.441406 405.742188 381.359375 409.566406 378.789062 413.761719 L 378.757812 413.761719 C 376.554688 402.542969 371.746094 392.679688 363.574219 386.671875 C 365.355469 383.554688 368.242188 381.148438 371.664062 379.957031 C 373.21875 379.390625 374.886719 379.109375 376.609375 379.109375 C 379.691406 379.109375 382.578125 380.042969 384.980469 381.6875 Z M 384.980469 381.6875 " fill-opacity="1" fill-rule="nonzero"/><path fill="#82387d" d="M 528.019531 416.226562 C 528.699219 418.152344 529.066406 420.25 529.066406 422.402344 C 529.066406 432.917969 520.554688 441.445312 510.09375 441.445312 C 508.878906 441.445312 507.660156 441.332031 506.503906 441.105469 C 499.265625 439.71875 493.46875 434.21875 491.6875 427.109375 C 499.011719 424.871094 504.410156 418.324219 505.03125 410.417969 L 505.03125 410.390625 C 509.839844 410.105469 514.164062 408.007812 517.332031 404.808594 C 522.335938 406.875 526.265625 411.042969 528.019531 416.226562 Z M 528.019531 416.226562 " fill-opacity="1" fill-rule="nonzero"/><path fill="#82387d" d="M 534.269531 368.765625 C 534.269531 372.617188 533.109375 376.21875 531.15625 379.191406 C 529.375 378.65625 527.453125 378.34375 525.476562 378.34375 C 523.070312 378.34375 520.78125 378.769531 518.6875 379.589844 C 515.863281 376.019531 511.761719 373.496094 507.097656 372.675781 C 510.488281 369.246094 512.582031 364.542969 512.582031 359.300781 C 512.582031 356.070312 511.789062 353.039062 510.375 350.375 C 511.960938 349.949219 513.570312 349.722656 515.269531 349.722656 C 516.597656 349.722656 517.867188 349.867188 519.113281 350.121094 C 527.765625 351.90625 534.269531 359.585938 534.269531 368.765625 Z M 534.269531 368.765625 " fill-opacity="1" fill-rule="nonzero"/><path fill="#82387d" d="M 474.582031 321.617188 C 481.59375 321.617188 487.53125 326.148438 489.621094 332.46875 C 486.511719 335.160156 484.25 338.898438 483.515625 343.152344 C 481.195312 344.625 479.191406 346.578125 477.691406 348.875 C 474.890625 347.230469 471.613281 346.296875 468.132812 346.296875 C 466.015625 346.296875 464.007812 346.636719 462.113281 347.289062 L 462.113281 347.257812 C 460.019531 344.566406 458.746094 341.167969 458.746094 337.484375 C 458.746094 328.699219 465.84375 321.617188 474.582031 321.617188 Z M 474.582031 321.617188 " fill-opacity="1" fill-rule="nonzero"/><path fill="#82387d" d="M 435.136719 349.441406 C 435.136719 353.777344 436.976562 357.6875 439.886719 360.40625 C 434.289062 360.660156 429.484375 364.003906 427.136719 368.765625 C 424.5625 366.667969 421.285156 365.449219 417.75 365.449219 C 416.929688 365.449219 416.136719 365.507812 415.347656 365.675781 L 415.347656 365.621094 C 413.339844 363.070312 412.152344 359.867188 412.152344 356.355469 C 412.152344 354.769531 412.40625 353.238281 412.859375 351.792969 C 414.074219 347.910156 416.84375 344.707031 420.464844 342.921875 C 422.472656 341.902344 424.734375 341.335938 427.136719 341.335938 C 430.472656 341.335938 433.554688 342.441406 436.042969 344.285156 L 436.070312 344.285156 C 435.449219 345.898438 435.136719 347.628906 435.136719 349.441406 Z M 435.136719 349.441406 " fill-opacity="1" fill-rule="nonzero"/><path fill="#82387d" d="M 392.898438 359.300781 C 392.046875 361.171875 391.597656 363.269531 391.597656 365.449219 C 391.597656 369.359375 393.066406 372.902344 395.527344 375.59375 C 391.199219 376.046875 387.410156 378.371094 385.007812 381.714844 L 384.980469 381.6875 C 382.578125 380.042969 379.691406 379.109375 376.609375 379.109375 C 374.886719 379.109375 373.21875 379.390625 371.664062 379.957031 C 369.964844 377.519531 368.976562 374.546875 368.976562 371.371094 C 368.976562 369.472656 369.316406 367.660156 369.964844 365.988281 C 372.144531 360.351562 377.570312 356.355469 383.960938 356.355469 C 387.296875 356.355469 390.410156 357.460938 392.898438 359.300781 Z M 392.898438 359.300781 " fill-opacity="1" fill-rule="nonzero"/><path fill="#894687" d="M 506.503906 441.105469 C 504.804688 449.890625 497.085938 456.519531 487.839844 456.519531 C 485.777344 456.519531 483.769531 456.179688 481.902344 455.554688 C 482.808594 451.617188 483.261719 447.480469 483.261719 443.257812 C 483.261719 437.703125 482.46875 432.320312 480.941406 427.25 L 480.972656 427.25 C 482.582031 427.703125 484.308594 427.957031 486.089844 427.957031 C 488.039062 427.957031 489.933594 427.675781 491.6875 427.109375 C 493.46875 434.21875 499.265625 439.71875 506.503906 441.105469 Z M 506.503906 441.105469 " fill-opacity="1" fill-rule="nonzero"/><path fill="#894687" d="M 490.300781 378.03125 L 490.300781 378.058594 C 486.910156 381.488281 484.816406 386.21875 484.816406 391.433594 C 484.816406 395.230469 485.917969 398.742188 487.839844 401.71875 C 484.195312 405.234375 479.246094 407.414062 473.761719 407.414062 C 472.546875 407.414062 471.359375 407.300781 470.199219 407.101562 C 465.871094 401.890625 460.640625 397.46875 454.730469 394.125 C 453.941406 391.945312 453.488281 389.5625 453.488281 387.097656 C 453.488281 384.292969 454.054688 381.601562 455.101562 379.164062 C 458.183594 371.882812 465.363281 366.78125 473.761719 366.78125 C 474.46875 366.78125 475.144531 366.808594 475.824219 366.894531 L 476.109375 366.753906 C 478.566406 372.589844 483.882812 376.953125 490.300781 378.03125 Z M 490.300781 378.03125 " fill-opacity="1" fill-rule="nonzero"/><path fill="#894687" d="M 544.476562 397.355469 C 544.476562 407.019531 537.320312 414.980469 528.046875 416.226562 L 528.019531 416.226562 C 526.265625 411.042969 522.335938 406.875 517.332031 404.808594 C 520.726562 401.351562 522.816406 396.675781 522.816406 391.433594 C 522.816406 386.957031 521.289062 382.820312 518.6875 379.589844 C 520.78125 378.769531 523.070312 378.34375 525.476562 378.34375 C 527.453125 378.34375 529.375 378.65625 531.15625 379.191406 C 538.875 381.628906 544.476562 388.828125 544.476562 397.355469 Z M 544.476562 397.355469 " fill-opacity="1" fill-rule="nonzero"/><path fill="#894687" d="M 519.535156 346.296875 C 519.535156 347.542969 519.425781 348.761719 519.167969 349.949219 L 519.113281 350.121094 C 517.867188 349.867188 516.597656 349.722656 515.269531 349.722656 C 513.570312 349.722656 511.960938 349.949219 510.375 350.375 C 507.179688 344.367188 500.847656 340.261719 493.582031 340.261719 C 489.878906 340.261719 486.429688 341.308594 483.515625 343.152344 C 484.25 338.898438 486.511719 335.160156 489.621094 332.46875 C 492.789062 329.746094 496.917969 328.105469 501.386719 328.105469 C 511.421875 328.105469 519.535156 336.238281 519.535156 346.296875 Z M 519.535156 346.296875 " fill-opacity="1" fill-rule="nonzero"/><path fill="#894687" d="M 462.113281 347.257812 L 462.113281 347.289062 C 454.84375 349.695312 449.53125 356.410156 449.164062 364.429688 C 445.570312 364.203125 442.320312 362.730469 439.886719 360.40625 C 436.976562 357.6875 435.136719 353.777344 435.136719 349.441406 C 435.136719 347.628906 435.449219 345.898438 436.070312 344.285156 C 438.164062 338.53125 443.648438 334.421875 450.125 334.421875 C 453.402344 334.421875 456.289062 335.699219 458.746094 337.484375 C 458.746094 341.167969 460.019531 344.566406 462.113281 347.257812 Z M 462.113281 347.257812 " fill-opacity="1" fill-rule="nonzero"/><path fill="#894687" d="M 415.347656 365.621094 L 415.347656 365.675781 C 409.4375 366.613281 404.6875 371.003906 403.246094 376.757812 L 403.214844 376.757812 C 401.351562 375.960938 399.316406 375.480469 397.164062 375.480469 C 396.601562 375.480469 396.0625 375.507812 395.527344 375.59375 C 393.066406 372.902344 391.597656 369.359375 391.597656 365.449219 C 391.597656 363.269531 392.046875 361.171875 392.898438 359.300781 C 393.914062 357.007812 395.527344 355.023438 397.503906 353.492188 C 400.023438 351.566406 403.160156 350.433594 406.582031 350.433594 C 408.816406 350.433594 410.933594 350.914062 412.859375 351.792969 C 412.40625 353.238281 412.152344 354.769531 412.152344 356.355469 C 412.152344 359.867188 413.339844 363.070312 415.347656 365.621094 Z M 415.347656 365.621094 " fill-opacity="1" fill-rule="nonzero"/><path fill="#894687" d="M 371.664062 379.957031 C 368.242188 381.148438 365.355469 383.554688 363.574219 386.671875 C 362.671875 385.992188 361.710938 385.371094 360.71875 384.804688 C 356.988281 382.648438 353.511719 381.375 350.289062 380.75 C 350.289062 374.746094 353.792969 369.332031 358.855469 366.78125 C 360.804688 365.789062 362.980469 365.222656 365.273438 365.222656 C 366.914062 365.222656 368.496094 365.480469 369.964844 365.988281 C 369.316406 367.660156 368.976562 369.472656 368.976562 371.371094 C 368.976562 374.546875 369.964844 377.519531 371.664062 379.957031 Z M 371.664062 379.957031 " fill-opacity="1" fill-rule="nonzero"/><path fill="#ff971a" d="M 483.261719 443.257812 C 483.261719 447.480469 482.808594 451.617188 481.902344 455.554688 C 476.304688 480.832031 453.800781 499.757812 426.882812 499.757812 C 402.933594 499.757812 382.464844 484.769531 374.292969 463.6875 C 374.6875 462.695312 375.054688 461.648438 375.394531 460.601562 C 380.003906 446.546875 381.785156 428.894531 378.757812 413.761719 L 378.789062 413.761719 C 381.359375 409.566406 384.441406 405.742188 387.976562 402.371094 C 393.292969 397.269531 399.597656 393.21875 406.609375 390.5 C 412.886719 388.089844 419.730469 386.757812 426.882812 386.757812 C 428.238281 386.757812 429.566406 386.816406 430.898438 386.929688 C 434.175781 387.125 437.371094 387.636719 440.480469 388.429688 C 445.542969 389.675781 450.320312 391.605469 454.730469 394.125 C 460.640625 397.46875 465.871094 401.890625 470.199219 407.101562 C 475.0625 412.941406 478.765625 419.769531 480.941406 427.25 C 482.46875 432.320312 483.261719 437.703125 483.261719 443.257812 Z M 483.261719 443.257812 " fill-opacity="1" fill-rule="nonzero"/><path fill="#e15c63" d="M 308.015625 391.378906 C 309.121094 391.40625 310.195312 391.378906 311.269531 391.261719 C 318.929688 390.414062 325.972656 385.371094 334.03125 382.421875 C 336.574219 381.460938 339.203125 380.75 342.003906 380.441406 C 344.605469 380.128906 347.375 380.183594 350.289062 380.75 C 353.511719 381.375 356.988281 382.648438 360.71875 384.804688 C 361.710938 385.371094 362.671875 385.992188 363.574219 386.671875 C 371.746094 392.679688 376.554688 402.542969 378.757812 413.761719 C 381.785156 428.894531 380.003906 446.546875 375.394531 460.601562 C 375.054688 461.648438 374.6875 462.695312 374.292969 463.6875 C 365.246094 487.40625 345.085938 500.609375 335.5 499.164062 C 333.351562 498.824219 331.484375 498.171875 329.929688 497.351562 C 325.460938 495.027344 320.089844 495.621094 316.246094 498.878906 C 314.886719 500.042969 313.21875 501.0625 311.183594 501.855469 C 301.796875 505.511719 277.652344 496.1875 263.851562 473.011719 C 250.367188 450.425781 243.210938 414.726562 260.289062 397.101562 C 260.714844 396.648438 261.136719 396.222656 261.589844 395.824219 C 278.949219 379.902344 294.050781 391.007812 308.015625 391.378906 Z M 308.015625 391.378906 " fill-opacity="1" fill-rule="nonzero"/><path fill="#ef8b1d" d="M 472.882812 475.902344 C 462.675781 490.324219 445.882812 499.757812 426.882812 499.757812 C 402.933594 499.757812 382.464844 484.769531 374.292969 463.6875 C 374.6875 462.695312 375.054688 461.648438 375.394531 460.601562 C 377.542969 454.082031 379.070312 446.800781 379.75 439.347656 L 379.777344 439.320312 C 379.777344 439.320312 390.691406 509.988281 472.882812 475.902344 Z M 472.882812 475.902344 " fill-opacity="1" fill-rule="nonzero"/><path fill="#d14b62" d="M 331.597656 483.863281 C 338.410156 487.800781 357.46875 488.625 379.75 439.347656 C 379.070312 446.800781 377.542969 454.082031 375.394531 460.601562 C 375.054688 461.648438 374.6875 462.695312 374.292969 463.6875 C 365.246094 487.40625 345.085938 500.609375 335.5 499.164062 C 333.351562 498.824219 331.484375 498.171875 329.929688 497.351562 C 325.460938 495.027344 320.089844 495.621094 316.246094 498.878906 C 314.886719 500.042969 313.21875 501.0625 311.183594 501.855469 C 301.796875 505.511719 277.652344 496.1875 263.851562 473.011719 C 262.46875 470.660156 261.136719 468.195312 259.894531 465.585938 C 259.894531 465.585938 279.09375 489.871094 300.382812 489.671875 C 301.824219 489.046875 304.710938 490.691406 311.945312 483.664062 C 319.183594 476.609375 324.785156 479.925781 331.597656 483.863281 Z M 331.597656 483.863281 " fill-opacity="1" fill-rule="nonzero"/><path fill="#3a322b" d="M 265.5 382.691406 C 265.945312 382.953125 266.433594 383.074219 266.914062 383.074219 C 267.890625 383.074219 268.835938 382.570312 269.363281 381.664062 C 270.148438 380.308594 269.6875 378.574219 268.339844 377.789062 C 240.273438 361.449219 226.972656 338.4375 227.679688 307.441406 C 227.71875 305.878906 226.484375 304.582031 224.917969 304.546875 C 223.375 304.4375 222.0625 305.746094 222.03125 307.316406 C 221.28125 340.101562 235.90625 365.460938 265.5 382.691406 Z M 265.5 382.691406 " fill-opacity="1" fill-rule="nonzero"/><path fill="#3a322b" d="M 440.75 399.320312 C 434.960938 401.933594 429.308594 401.535156 423.476562 398.113281 C 422.128906 397.324219 420.394531 397.777344 419.605469 399.125 C 418.820312 400.476562 419.269531 402.210938 420.617188 403.003906 C 424.808594 405.460938 429.035156 406.691406 433.273438 406.691406 C 436.539062 406.691406 439.8125 405.957031 443.070312 404.492188 C 444.496094 403.847656 445.128906 402.171875 444.488281 400.746094 C 443.847656 399.3125 442.171875 398.683594 440.75 399.320312 Z M 440.75 399.320312 " fill-opacity="1" fill-rule="nonzero"/><path fill="#3a322b" d="M 459.691406 470.132812 C 459.691406 470.417969 459.664062 470.699219 459.609375 470.980469 C 459.554688 471.257812 459.472656 471.527344 459.363281 471.789062 C 459.253906 472.054688 459.121094 472.300781 458.964844 472.539062 C 458.804688 472.773438 458.628906 472.992188 458.425781 473.195312 C 458.226562 473.394531 458.007812 473.574219 457.773438 473.730469 C 457.539062 473.890625 457.289062 474.023438 457.027344 474.132812 C 456.765625 474.242188 456.496094 474.324219 456.214844 474.378906 C 455.9375 474.433594 455.65625 474.460938 455.375 474.460938 C 455.089844 474.460938 454.808594 474.433594 454.53125 474.378906 C 454.253906 474.324219 453.984375 474.242188 453.722656 474.132812 C 453.460938 474.023438 453.210938 473.890625 452.976562 473.730469 C 452.738281 473.574219 452.523438 473.394531 452.320312 473.195312 C 452.121094 472.992188 451.941406 472.773438 451.785156 472.539062 C 451.625 472.300781 451.492188 472.054688 451.386719 471.789062 C 451.277344 471.527344 451.195312 471.257812 451.140625 470.980469 C 451.085938 470.699219 451.058594 470.417969 451.058594 470.132812 C 451.058594 469.851562 451.085938 469.570312 451.140625 469.289062 C 451.195312 469.011719 451.277344 468.742188 451.386719 468.480469 C 451.492188 468.214844 451.625 467.96875 451.785156 467.730469 C 451.941406 467.496094 452.121094 467.277344 452.320312 467.074219 C 452.523438 466.875 452.738281 466.695312 452.976562 466.535156 C 453.210938 466.378906 453.460938 466.246094 453.722656 466.136719 C 453.984375 466.027344 454.253906 465.945312 454.53125 465.890625 C 454.808594 465.835938 455.089844 465.808594 455.375 465.808594 C 455.65625 465.808594 455.9375 465.835938 456.214844 465.890625 C 456.496094 465.945312 456.765625 466.027344 457.027344 466.136719 C 457.289062 466.246094 457.539062 466.378906 457.773438 466.535156 C 458.007812 466.695312 458.226562 466.875 458.425781 467.074219 C 458.628906 467.277344 458.804688 467.496094 458.964844 467.730469 C 459.121094 467.96875 459.253906 468.214844 459.363281 468.480469 C 459.472656 468.742188 459.554688 469.011719 459.609375 469.289062 C 459.664062 469.570312 459.691406 469.851562 459.691406 470.132812 Z M 459.691406 470.132812 " fill-opacity="1" fill-rule="nonzero"/><path fill="#3a322b" d="M 440.007812 477.066406 C 440.007812 477.449219 439.933594 477.816406 439.789062 478.167969 C 439.640625 478.523438 439.433594 478.835938 439.164062 479.105469 C 438.894531 479.375 438.582031 479.585938 438.230469 479.730469 C 437.878906 479.875 437.511719 479.949219 437.128906 479.949219 C 436.746094 479.949219 436.378906 479.875 436.027344 479.730469 C 435.675781 479.585938 435.363281 479.375 435.09375 479.105469 C 434.824219 478.835938 434.617188 478.523438 434.46875 478.167969 C 434.324219 477.816406 434.25 477.449219 434.25 477.066406 C 434.25 476.683594 434.324219 476.316406 434.46875 475.960938 C 434.617188 475.609375 434.824219 475.296875 435.09375 475.027344 C 435.363281 474.753906 435.675781 474.546875 436.027344 474.402344 C 436.378906 474.253906 436.746094 474.179688 437.128906 474.179688 C 437.511719 474.179688 437.878906 474.253906 438.230469 474.402344 C 438.582031 474.546875 438.894531 474.753906 439.164062 475.027344 C 439.433594 475.296875 439.640625 475.609375 439.789062 475.960938 C 439.933594 476.316406 440.007812 476.683594 440.007812 477.066406 Z M 440.007812 477.066406 " fill-opacity="1" fill-rule="nonzero"/><path fill="#3a322b" d="M 420.460938 475.902344 C 420.460938 476.285156 420.386719 476.652344 420.242188 477.003906 C 420.097656 477.359375 419.886719 477.671875 419.617188 477.941406 C 419.347656 478.210938 419.035156 478.417969 418.683594 478.566406 C 418.332031 478.710938 417.964844 478.785156 417.582031 478.785156 C 417.199219 478.785156 416.832031 478.710938 416.480469 478.566406 C 416.128906 478.417969 415.816406 478.210938 415.546875 477.941406 C 415.277344 477.671875 415.070312 477.359375 414.921875 477.003906 C 414.777344 476.652344 414.703125 476.285156 414.703125 475.902344 C 414.703125 475.519531 414.777344 475.152344 414.921875 474.796875 C 415.070312 474.445312 415.277344 474.132812 415.546875 473.859375 C 415.816406 473.589844 416.128906 473.382812 416.480469 473.234375 C 416.832031 473.089844 417.199219 473.015625 417.582031 473.015625 C 417.964844 473.015625 418.332031 473.089844 418.683594 473.234375 C 419.035156 473.382812 419.347656 473.589844 419.617188 473.859375 C 419.886719 474.132812 420.097656 474.445312 420.242188 474.796875 C 420.386719 475.152344 420.460938 475.519531 420.460938 475.902344 Z M 420.460938 475.902344 " fill-opacity="1" fill-rule="nonzero"/><path fill="#3a322b" d="M 439.003906 461.488281 C 439.003906 461.871094 438.929688 462.238281 438.785156 462.59375 C 438.636719 462.945312 438.429688 463.257812 438.160156 463.527344 C 437.890625 463.800781 437.578125 464.007812 437.226562 464.15625 C 436.875 464.300781 436.507812 464.375 436.125 464.375 C 435.742188 464.375 435.375 464.300781 435.023438 464.15625 C 434.671875 464.007812 434.359375 463.800781 434.089844 463.527344 C 433.820312 463.257812 433.613281 462.945312 433.464844 462.59375 C 433.320312 462.238281 433.246094 461.871094 433.246094 461.488281 C 433.246094 461.105469 433.320312 460.738281 433.464844 460.386719 C 433.613281 460.03125 433.820312 459.71875 434.089844 459.449219 C 434.359375 459.179688 434.671875 458.972656 435.023438 458.824219 C 435.375 458.679688 435.742188 458.605469 436.125 458.605469 C 436.507812 458.605469 436.875 458.679688 437.226562 458.824219 C 437.578125 458.972656 437.890625 459.179688 438.160156 459.449219 C 438.429688 459.71875 438.636719 460.03125 438.785156 460.386719 C 438.929688 460.738281 439.003906 461.105469 439.003906 461.488281 Z M 439.003906 461.488281 " fill-opacity="1" fill-rule="nonzero"/><path fill="#3a322b" d="M 468.136719 455.71875 C 468.136719 456.101562 468.0625 456.472656 467.917969 456.824219 C 467.773438 457.179688 467.5625 457.488281 467.292969 457.761719 C 467.023438 458.03125 466.714844 458.238281 466.359375 458.386719 C 466.007812 458.53125 465.640625 458.605469 465.257812 458.605469 C 464.878906 458.605469 464.511719 458.53125 464.15625 458.386719 C 463.804688 458.238281 463.492188 458.03125 463.222656 457.761719 C 462.953125 457.488281 462.746094 457.179688 462.601562 456.824219 C 462.453125 456.472656 462.378906 456.101562 462.378906 455.71875 C 462.378906 455.339844 462.453125 454.96875 462.601562 454.617188 C 462.746094 454.261719 462.953125 453.953125 463.222656 453.679688 C 463.492188 453.410156 463.804688 453.203125 464.15625 453.054688 C 464.511719 452.910156 464.878906 452.835938 465.257812 452.835938 C 465.640625 452.835938 466.007812 452.910156 466.359375 453.054688 C 466.714844 453.203125 467.023438 453.410156 467.292969 453.679688 C 467.5625 453.953125 467.773438 454.261719 467.917969 454.617188 C 468.0625 454.96875 468.136719 455.339844 468.136719 455.71875 Z M 468.136719 455.71875 " fill-opacity="1" fill-rule="nonzero"/><path fill="#3a322b" d="M 471.015625 465.816406 C 471.015625 466.199219 470.941406 466.566406 470.796875 466.921875 C 470.652344 467.273438 470.441406 467.585938 470.171875 467.855469 C 469.902344 468.125 469.589844 468.335938 469.238281 468.480469 C 468.886719 468.628906 468.519531 468.699219 468.136719 468.699219 C 467.753906 468.699219 467.386719 468.628906 467.035156 468.480469 C 466.683594 468.335938 466.371094 468.125 466.101562 467.855469 C 465.832031 467.585938 465.625 467.273438 465.476562 466.921875 C 465.332031 466.566406 465.257812 466.199219 465.257812 465.816406 C 465.257812 465.433594 465.332031 465.066406 465.476562 464.710938 C 465.625 464.359375 465.832031 464.046875 466.101562 463.777344 C 466.371094 463.507812 466.683594 463.296875 467.035156 463.152344 C 467.386719 463.003906 467.753906 462.933594 468.136719 462.933594 C 468.519531 462.933594 468.886719 463.003906 469.238281 463.152344 C 469.589844 463.296875 469.902344 463.507812 470.171875 463.777344 C 470.441406 464.046875 470.652344 464.359375 470.796875 464.710938 C 470.941406 465.066406 471.015625 465.433594 471.015625 465.816406 Z M 471.015625 465.816406 " fill-opacity="1" fill-rule="nonzero"/><g clip-path="url(#f0b643ffa8)"><path fill="#3a322b" d="M 565.386719 346.402344 C 557.140625 341.929688 551.394531 343.308594 547.746094 345.71875 C 543.15625 344.164062 538.636719 343.460938 534.195312 343.507812 C 539.945312 336.484375 541.371094 326.554688 541.371094 313.144531 C 541.371094 308.265625 536.53125 304.445312 530.347656 304.445312 C 524.164062 304.445312 519.320312 308.265625 519.320312 313.144531 C 519.320312 313.796875 519.421875 314.425781 519.589844 315.035156 C 519.589844 315.050781 519.589844 315.066406 519.589844 315.078125 C 521.734375 322.707031 521.984375 329.890625 520.359375 337.382812 C 517.007812 330.242188 509.78125 325.277344 501.394531 325.277344 C 497.527344 325.277344 493.882812 326.328125 490.746094 328.175781 C 487.464844 322.449219 481.378906 318.773438 474.59375 318.773438 C 465.84375 318.773438 458.5 324.84375 456.488281 332.996094 C 454.410156 332.105469 452.285156 331.605469 450.117188 331.605469 C 443.636719 331.605469 437.972656 335.101562 434.855469 340.300781 C 432.460938 339.136719 429.847656 338.503906 427.128906 338.503906 C 426.699219 338.503906 426.277344 338.539062 425.855469 338.570312 C 436.445312 315.972656 432.992188 295.171875 415.550781 276.652344 C 414.949219 272.421875 411.34375 269.148438 406.953125 269.148438 C 402.519531 269.148438 398.886719 272.496094 398.347656 276.796875 C 393.191406 283.425781 390.121094 291.941406 386.898438 300.964844 C 384.074219 308.863281 381.160156 317.035156 376.707031 323.84375 C 373.480469 328.777344 370.824219 331.988281 368.472656 334.484375 C 367.445312 327.550781 364.917969 321.714844 362.605469 316.4375 C 360.535156 311.703125 358.582031 307.234375 357.925781 302.546875 C 357.136719 296.914062 357.253906 291.035156 357.351562 285.839844 C 357.53125 276.730469 357.625 268.824219 352.96875 264.675781 C 352.300781 260.523438 348.726562 257.335938 344.402344 257.335938 C 340.078125 257.335938 336.507812 260.515625 335.828125 264.65625 C 319.503906 278.347656 311.820312 297.421875 312.914062 321.441406 C 311.539062 319.742188 310.296875 318.011719 309.308594 316.230469 C 307.378906 312.746094 305.546875 308.636719 303.609375 304.292969 C 298.402344 292.609375 292.507812 279.449219 282.023438 272.515625 C 281.253906 268.484375 277.71875 265.425781 273.472656 265.425781 C 268.664062 265.425781 264.753906 269.34375 264.753906 274.160156 C 264.753906 274.566406 264.820312 274.953125 264.875 275.34375 C 256.429688 285.902344 253.082031 298.039062 254.871094 311.585938 C 248.230469 302.125 240.800781 293.914062 232.0625 290.25 C 231.152344 286.402344 227.714844 283.523438 223.601562 283.523438 C 218.792969 283.523438 214.882812 287.441406 214.882812 292.257812 C 214.882812 293.074219 215.03125 293.851562 215.242188 294.597656 C 209.917969 303.492188 209.128906 317.964844 213.214844 334.800781 C 218.222656 355.414062 232.351562 383.691406 255.921875 397.824219 C 240.253906 417.957031 249.117188 453.847656 261.414062 474.46875 C 273.769531 495.1875 294.265625 505.421875 306.625 505.421875 C 308.761719 505.421875 310.65625 505.113281 312.21875 504.503906 C 314.382812 503.660156 316.355469 502.5 318.074219 501.046875 C 318.074219 501.046875 318.074219 501.046875 318.074219 501.042969 C 321.039062 498.539062 325.175781 498.074219 328.613281 499.875 C 330.609375 500.914062 332.78125 501.613281 335.082031 501.964844 C 345.015625 503.453125 363.960938 491.777344 374.367188 470.585938 C 384.460938 489.945312 404.777344 502.585938 426.875 502.585938 C 454.089844 502.585938 477.015625 484.0625 483.910156 458.953125 C 485.203125 459.1875 486.511719 459.339844 487.84375 459.339844 C 497.410156 459.339844 505.757812 453.085938 508.609375 444.144531 C 509.101562 444.179688 509.582031 444.269531 510.082031 444.269531 C 522.113281 444.269531 531.902344 434.460938 531.902344 422.402344 C 531.902344 421.023438 531.730469 419.683594 531.484375 418.363281 C 540.683594 415.71875 547.300781 407.195312 547.300781 397.363281 C 547.300781 388.78125 542.335938 381.363281 535.140625 377.785156 C 536.414062 374.964844 537.09375 371.898438 537.09375 368.761719 C 537.09375 360.890625 532.90625 354 526.667969 350.148438 C 531.300781 348.917969 536.03125 348.800781 540.921875 349.765625 C 539.371094 351.710938 538.394531 354.246094 538.394531 357.054688 C 538.394531 363.117188 542.804688 368.050781 548.222656 368.050781 C 553.640625 368.050781 558.042969 363.117188 558.042969 357.054688 C 558.042969 353.941406 556.875 351.148438 555.011719 349.144531 C 556.933594 349.09375 559.445312 349.621094 562.699219 351.382812 C 564.074219 352.136719 565.785156 351.621094 566.527344 350.242188 C 567.269531 348.867188 566.761719 347.148438 565.386719 346.402344 Z M 524.238281 344.539062 C 526.832031 336.628906 527.605469 329.019531 526.59375 321.308594 C 527.765625 321.636719 529.015625 321.84375 530.347656 321.84375 C 532.238281 321.84375 533.972656 321.453125 535.511719 320.820312 C 534.84375 332.414062 532.179688 339.839844 524.238281 344.539062 Z M 530.347656 310.113281 C 533.417969 310.113281 535.714844 311.710938 535.714844 313.144531 C 535.714844 314.582031 533.417969 316.179688 530.347656 316.179688 C 527.273438 316.179688 524.976562 314.582031 524.976562 313.144531 C 524.976562 311.710938 527.273438 310.113281 530.347656 310.113281 Z M 516.710938 346.289062 C 516.710938 346.515625 516.648438 346.738281 516.640625 346.96875 C 516.1875 346.9375 515.738281 346.894531 515.273438 346.894531 C 514.085938 346.894531 512.914062 347.027344 511.75 347.214844 C 507.835938 341.324219 501.15625 337.433594 493.585938 337.433594 C 491.832031 337.433594 490.132812 337.664062 488.5 338.058594 C 489.320312 336.765625 490.300781 335.589844 491.453125 334.605469 C 491.484375 334.578125 491.511719 334.550781 491.539062 334.523438 C 494.21875 332.273438 497.667969 330.9375 501.394531 330.9375 C 509.84375 330.941406 516.710938 337.828125 516.710938 346.289062 Z M 519.980469 391.425781 C 519.980469 400.355469 512.730469 407.625 503.820312 407.625 C 494.90625 407.625 487.65625 400.359375 487.65625 391.425781 C 487.65625 387.578125 489.050781 383.972656 491.496094 381.058594 C 492.183594 381.125 492.878906 381.164062 493.585938 381.164062 C 499.042969 381.164062 504.027344 379.132812 507.855469 375.800781 C 514.941406 377.628906 519.980469 383.96875 519.980469 391.425781 Z M 486.101562 425.117188 C 485.097656 425.117188 484.101562 424.992188 483.121094 424.808594 C 481.402344 419.566406 479.007812 414.625 475.984375 410.136719 C 480.128906 409.742188 484.042969 408.21875 487.386719 405.761719 C 490.953125 409.859375 495.996094 412.628906 501.691406 413.183594 C 499.804688 420.070312 493.460938 425.117188 486.101562 425.117188 Z M 407.597656 387.117188 C 406.304688 385.144531 405.582031 382.847656 405.582031 380.457031 C 405.582031 373.738281 411.039062 368.273438 417.742188 368.273438 C 419.847656 368.273438 421.859375 368.800781 423.652344 369.804688 C 423.070312 371.574219 422.742188 373.453125 422.742188 375.417969 C 422.742188 378.453125 423.527344 381.378906 424.949219 383.976562 C 418.941406 384.167969 413.105469 385.234375 407.597656 387.117188 Z M 367.398438 386.203125 C 369.6875 383.542969 373.03125 381.941406 376.597656 381.941406 C 378.164062 381.941406 379.679688 382.265625 381.101562 382.839844 C 379.992188 385.164062 379.351562 387.761719 379.351562 390.511719 C 379.351562 394.976562 381 399.164062 383.917969 402.410156 C 382.535156 403.882812 381.222656 405.433594 379.976562 407.058594 C 377.550781 398.792969 373.464844 391.503906 367.398438 386.203125 Z M 365.273438 368.058594 C 365.671875 368.058594 366.0625 368.117188 366.453125 368.152344 C 366.261719 369.199219 366.144531 370.269531 366.144531 371.371094 C 366.144531 373.914062 366.710938 376.378906 367.734375 378.65625 C 365.871094 379.726562 364.222656 381.152344 362.839844 382.835938 C 362.585938 382.683594 362.375 382.492188 362.117188 382.34375 C 359.027344 380.570312 356.109375 379.355469 353.335938 378.5625 C 354.363281 372.6875 359.398438 368.058594 365.273438 368.058594 Z M 411.054688 363.921875 C 406.789062 365.664062 403.347656 369.007812 401.476562 373.210938 C 400.074219 372.859375 398.632812 372.660156 397.160156 372.660156 C 397.054688 372.660156 396.953125 372.675781 396.847656 372.679688 C 395.296875 370.585938 394.410156 368.078125 394.410156 365.441406 C 394.410156 358.722656 399.863281 353.257812 406.566406 353.257812 C 407.585938 353.257812 408.578125 353.417969 409.542969 353.660156 C 409.410156 354.542969 409.316406 355.433594 409.316406 356.351562 C 409.316406 359.019531 409.949219 361.570312 411.054688 363.921875 Z M 390.914062 373.816406 C 388.433594 374.753906 386.214844 376.21875 384.398438 378.085938 C 381.984375 376.902344 379.328125 376.277344 376.597656 376.277344 C 375.378906 376.277344 374.191406 376.441406 373.019531 376.683594 C 372.222656 375.035156 371.800781 373.230469 371.800781 371.371094 C 371.800781 364.652344 377.253906 359.183594 383.960938 359.183594 C 385.902344 359.183594 387.769531 359.640625 389.460938 360.507812 C 389.007812 362.078125 388.753906 363.730469 388.753906 365.441406 C 388.757812 368.40625 389.546875 371.253906 390.914062 373.816406 Z M 388.007812 398.46875 C 386.097656 396.273438 385.003906 393.492188 385.003906 390.511719 C 385.003906 383.792969 390.460938 378.328125 397.164062 378.328125 C 398.140625 378.328125 399.089844 378.472656 400.019531 378.695312 C 399.960938 379.273438 399.929688 379.863281 399.929688 380.457031 C 399.929688 383.574219 400.777344 386.578125 402.285156 389.242188 C 397.117188 391.601562 392.3125 394.699219 388.007812 398.46875 Z M 432.199219 384.183594 C 429.804688 381.890625 428.402344 378.757812 428.402344 375.421875 C 428.402344 369.222656 433.007812 364.144531 439.039062 363.386719 C 441.148438 365.078125 443.648438 366.296875 446.394531 366.882812 C 446.464844 367.859375 446.578125 368.828125 446.777344 369.777344 C 441.242188 372.757812 437.636719 378.519531 437.417969 384.910156 C 435.699219 384.601562 433.960938 384.34375 432.199219 384.183594 Z M 468.132812 349.121094 C 470.078125 349.121094 471.984375 349.496094 473.785156 350.171875 C 472.503906 352.953125 471.769531 356.039062 471.769531 359.300781 C 471.769531 360.925781 471.960938 362.503906 472.296875 364.027344 C 464.941406 364.496094 458.507812 368.398438 454.609375 374.175781 C 452.898438 371.570312 451.96875 368.53125 451.96875 365.316406 C 451.96875 356.390625 459.214844 349.121094 468.132812 349.121094 Z M 493.585938 343.105469 C 502.496094 343.105469 509.75 350.371094 509.75 359.300781 C 509.75 368.234375 502.5 375.5 493.585938 375.5 C 484.671875 375.5 477.421875 368.234375 477.421875 359.300781 C 477.421875 350.371094 484.671875 343.105469 493.585938 343.105469 Z M 443.089844 386.234375 C 443.074219 385.996094 443.019531 385.761719 443.019531 385.523438 C 443.019531 381.285156 445.242188 377.433594 448.71875 375.230469 C 449.5625 376.890625 450.601562 378.445312 451.84375 379.847656 C 451.089844 382.132812 450.667969 384.566406 450.667969 387.101562 C 450.667969 387.734375 450.699219 388.367188 450.75 388.996094 C 448.28125 387.898438 445.722656 386.984375 443.089844 386.234375 Z M 457.183594 392.375 C 456.644531 390.671875 456.320312 388.910156 456.320312 387.101562 C 456.320312 377.464844 464.144531 369.621094 473.761719 369.621094 C 473.96875 369.621094 474.167969 369.648438 474.371094 369.652344 C 476.785156 374.136719 480.722656 377.671875 485.476562 379.585938 C 483.21875 383.085938 481.996094 387.164062 481.996094 391.429688 C 481.996094 394.882812 482.824219 398.136719 484.25 401.046875 C 481.238281 403.328125 477.589844 404.582031 473.757812 404.582031 C 472.992188 404.582031 472.246094 404.480469 471.5 404.382812 C 467.402344 399.65625 462.570312 395.609375 457.183594 392.375 Z M 474.59375 324.4375 C 479.617188 324.4375 484.101562 327.316406 486.261719 331.738281 C 483.726562 334.386719 481.878906 337.714844 481.003906 341.472656 C 479.460938 342.566406 478.0625 343.847656 476.855469 345.296875 C 474.113281 344.101562 471.148438 343.457031 468.132812 343.457031 C 466.488281 343.457031 464.890625 343.65625 463.351562 344.003906 C 462.203125 342.027344 461.582031 339.8125 461.582031 337.480469 C 461.582031 330.285156 467.417969 324.4375 474.59375 324.4375 Z M 450.121094 337.265625 C 452.105469 337.265625 454.097656 337.910156 456.0625 339.117188 C 456.269531 341.53125 456.902344 343.84375 457.992188 345.972656 C 452.246094 349.011719 448.007812 354.539062 446.726562 361.121094 C 441.652344 359.636719 437.964844 354.949219 437.964844 349.445312 C 437.964844 342.730469 443.417969 337.265625 450.121094 337.265625 Z M 432.753906 345.542969 C 432.46875 346.804688 432.3125 348.105469 432.3125 349.445312 C 432.3125 352.75 433.234375 355.851562 434.808594 358.519531 C 431.339844 359.695312 428.378906 361.910156 426.25 364.789062 C 423.652344 363.375 420.722656 362.605469 417.742188 362.605469 C 417.414062 362.605469 417.089844 362.636719 416.765625 362.65625 C 415.609375 360.757812 414.976562 358.617188 414.976562 356.347656 C 414.976562 349.628906 420.429688 344.164062 427.132812 344.164062 C 429.117188 344.167969 431.03125 344.640625 432.753906 345.542969 Z M 406.960938 274.8125 C 408.652344 274.8125 410.023438 276.1875 410.023438 277.878906 C 410.023438 279.574219 408.648438 280.949219 406.960938 280.949219 C 405.273438 280.949219 403.898438 279.570312 403.898438 277.878906 C 403.898438 276.1875 405.269531 274.8125 406.960938 274.8125 Z M 381.441406 326.941406 C 386.261719 319.570312 389.292969 311.082031 392.226562 302.871094 C 394.738281 295.832031 397.160156 289.128906 400.484375 283.667969 C 402.078125 285.460938 404.378906 286.613281 406.957031 286.613281 C 409.769531 286.613281 412.246094 285.25 413.839844 283.175781 C 428.722656 300.570312 430.183594 319.480469 418.355469 340.828125 C 415.332031 342.550781 412.867188 345.132812 411.277344 348.242188 C 409.75 347.824219 408.179688 347.585938 406.5625 347.585938 C 405.835938 347.585938 405.128906 347.640625 404.425781 347.726562 C 414.800781 329.652344 417.191406 313.230469 412.472656 294.175781 C 412.09375 292.65625 410.558594 291.734375 409.042969 292.109375 C 407.527344 292.488281 406.605469 294.027344 406.984375 295.542969 C 411.949219 315.582031 408.582031 331.839844 395.382812 351.5625 C 394.035156 352.660156 392.84375 353.941406 391.859375 355.382812 C 389.417969 354.167969 386.742188 353.511719 383.960938 353.511719 C 377.28125 353.511719 371.457031 357.222656 368.410156 362.683594 C 367.378906 362.5 366.332031 362.386719 365.277344 362.386719 C 363.535156 362.386719 361.847656 362.667969 360.25 363.175781 C 359.351562 360.71875 358.527344 356.304688 361.3125 351.335938 C 363.492188 347.445312 365.582031 345.289062 368.128906 342.816406 C 368.132812 342.8125 368.132812 342.8125 368.132812 342.808594 C 368.347656 342.605469 368.550781 342.402344 368.769531 342.191406 C 372.03125 339.042969 376.097656 335.117188 381.441406 326.941406 Z M 344.402344 263.003906 C 346.089844 263.003906 347.460938 264.382812 347.460938 266.074219 C 347.460938 267.765625 346.089844 269.140625 344.402344 269.140625 C 342.710938 269.140625 341.339844 267.765625 341.339844 266.074219 C 341.339844 264.382812 342.710938 263.003906 344.402344 263.003906 Z M 337.179688 270.960938 C 338.75 273.28125 341.398438 274.808594 344.402344 274.808594 C 346.992188 274.808594 349.300781 273.644531 350.902344 271.835938 C 351.886719 275.140625 351.8125 280.148438 351.707031 285.71875 C 351.601562 291.125 351.480469 297.246094 352.332031 303.324219 C 353.09375 308.78125 355.203125 313.601562 357.433594 318.703125 C 360.199219 325.015625 363.019531 331.554688 363.265625 339.671875 C 360.914062 342.003906 358.652344 344.523438 356.390625 348.5625 C 352.324219 355.8125 353.796875 362.292969 355.1875 365.746094 C 351.394531 368.5 348.640625 372.714844 347.773438 377.523438 C 346.832031 377.4375 345.910156 377.402344 345 377.40625 C 345.128906 372.339844 344.753906 362.265625 340.734375 352.644531 C 334.046875 325.054688 334.183594 301.941406 341.148438 283.9375 C 341.714844 282.480469 340.992188 280.839844 339.535156 280.273438 C 338.085938 279.707031 336.441406 280.429688 335.878906 281.894531 C 329.542969 298.265625 328.433594 317.660156 332.5 340.859375 C 329.90625 338.117188 327.058594 335.472656 324.234375 332.878906 C 322.515625 331.296875 320.785156 329.695312 319.109375 328.074219 C 316.300781 303.46875 322.210938 284.71875 337.179688 270.960938 Z M 273.472656 271.09375 C 275.164062 271.09375 276.535156 272.472656 276.535156 274.164062 C 276.535156 275.855469 275.160156 277.230469 273.472656 277.230469 C 271.785156 277.230469 270.410156 275.855469 270.410156 274.164062 C 270.410156 272.472656 271.785156 271.09375 273.472656 271.09375 Z M 267.832031 280.769531 C 269.359375 282.078125 271.3125 282.898438 273.472656 282.898438 C 276.617188 282.898438 279.355469 281.203125 280.890625 278.691406 C 288.84375 285.109375 293.917969 296.453125 298.445312 306.605469 C 300.4375 311.066406 302.316406 315.28125 304.363281 318.980469 C 306.886719 323.53125 310.546875 327.617188 314.507812 331.5 C 314.523438 331.511719 314.53125 331.523438 314.546875 331.535156 C 316.460938 333.410156 318.441406 335.246094 320.410156 337.054688 C 326.785156 342.917969 332.8125 348.453125 335.421875 354.59375 C 339.3125 363.726562 339.464844 373.6875 339.316406 377.972656 C 337.960938 378.234375 336.640625 378.578125 335.351562 378.976562 C 333.066406 375.222656 327.550781 367.554688 318.40625 362.972656 C 313.15625 360.339844 308.363281 360.039062 303.734375 359.746094 C 297.417969 359.347656 291.449219 358.96875 283.464844 352.984375 C 278.003906 348.894531 272.203125 339.304688 266.0625 329.152344 C 265.855469 328.808594 265.640625 328.460938 265.433594 328.117188 C 257.472656 309.535156 258.253906 294.007812 267.832031 280.769531 Z M 223.605469 289.191406 C 225.292969 289.191406 226.667969 290.570312 226.667969 292.261719 C 226.667969 293.953125 225.292969 295.328125 223.605469 295.328125 C 221.914062 295.328125 220.542969 293.953125 220.542969 292.261719 C 220.542969 290.570312 221.917969 289.191406 223.605469 289.191406 Z M 218.710938 333.460938 C 215.355469 319.636719 215.484375 307.367188 218.929688 299.609375 C 220.285156 300.476562 221.882812 300.996094 223.605469 300.996094 C 227.011719 300.996094 229.9375 299.007812 231.371094 296.144531 C 242.964844 301.949219 252.625 317.890625 261.21875 332.09375 C 267.652344 342.730469 273.730469 352.777344 280.070312 357.527344 C 289.402344 364.523438 296.824219 364.992188 303.371094 365.40625 C 307.8125 365.683594 311.648438 365.925781 315.875 368.046875 C 323.023438 371.628906 327.683594 377.582031 329.925781 381.011719 C 328.011719 381.839844 326.15625 382.730469 324.347656 383.609375 C 319.722656 385.847656 315.351562 387.960938 310.945312 388.445312 C 310.71875 388.472656 310.484375 388.449219 310.261719 388.46875 C 309.285156 383.445312 309.511719 378.757812 310.933594 374.332031 C 311.410156 372.84375 310.59375 371.246094 309.105469 370.769531 C 307.617188 370.289062 306.027344 371.113281 305.546875 372.597656 C 303.953125 377.570312 303.621094 382.761719 304.496094 388.21875 C 302.011719 387.863281 299.453125 387.28125 296.808594 386.667969 C 285.863281 384.117188 273.464844 381.234375 259.867188 393.574219 C 237.171875 380.585938 223.527344 353.304688 218.710938 333.460938 Z M 335.925781 496.359375 C 334.246094 496.105469 332.660156 495.59375 331.226562 494.847656 C 325.746094 491.988281 319.15625 492.71875 314.429688 496.714844 C 313.1875 497.761719 311.757812 498.605469 310.171875 499.222656 C 302.519531 502.195312 279.492188 493.738281 266.265625 471.5625 C 254.074219 451.109375 245.152344 414.734375 263.5 397.910156 C 270.042969 391.914062 276.097656 390.089844 282.054688 390.089844 C 286.546875 390.089844 290.980469 391.125 295.523438 392.183594 C 298.917969 392.976562 302.386719 393.773438 305.871094 394.085938 C 306.785156 397.046875 308.035156 400.089844 309.632812 403.226562 C 307.792969 403.203125 305.832031 403.015625 303.726562 402.65625 C 302.183594 402.398438 300.726562 403.429688 300.464844 404.96875 C 300.203125 406.511719 301.238281 407.980469 302.773438 408.238281 C 305.304688 408.671875 307.699219 408.886719 309.960938 408.886719 C 317.023438 408.886719 322.777344 406.78125 327.125 402.59375 C 328.25 401.511719 328.285156 399.714844 327.203125 398.589844 C 326.121094 397.457031 324.328125 397.421875 323.207031 398.511719 C 321.140625 400.5 318.636719 401.828125 315.695312 402.5625 C 314.078125 399.613281 312.789062 396.773438 311.832031 394.03125 C 317.097656 393.386719 322.03125 391.007812 326.804688 388.703125 C 336.578125 383.972656 345.8125 379.511719 359.304688 387.253906 C 368.617188 392.597656 373.753906 402.617188 376.011719 414.085938 C 376.035156 414.28125 376.070312 414.464844 376.132812 414.648438 C 378.941406 429.636719 376.882812 447.011719 372.710938 459.722656 C 372.4375 460.554688 372.113281 461.34375 371.816406 462.148438 C 371.675781 462.394531 371.59375 462.644531 371.53125 462.917969 C 362.8125 485.40625 343.65625 497.527344 335.925781 496.359375 Z M 426.875 496.921875 C 405.25 496.921875 385.5 483.546875 377.324219 463.5625 C 377.578125 462.871094 377.855469 462.207031 378.085938 461.5 C 382.414062 448.3125 384.464844 430.417969 381.664062 414.515625 C 387.949219 404.59375 397.027344 397.226562 407.558594 393.171875 C 407.585938 393.160156 407.617188 393.152344 407.644531 393.140625 C 413.671875 390.832031 420.160156 389.582031 426.875 389.582031 C 456.40625 389.582031 480.429688 413.660156 480.429688 443.25 C 480.429688 472.839844 456.40625 496.921875 426.875 496.921875 Z M 487.839844 453.675781 C 486.929688 453.675781 486.03125 453.59375 485.144531 453.441406 C 485.722656 450.125 486.082031 446.734375 486.082031 443.25 C 486.082031 438.9375 485.59375 434.742188 484.71875 430.6875 C 485.179688 430.71875 485.640625 430.78125 486.101562 430.78125 C 487.378906 430.78125 488.625 430.65625 489.84375 430.441406 C 492.210938 436.441406 497.03125 441.035156 502.992188 443.082031 C 500.691406 449.347656 494.691406 453.675781 487.839844 453.675781 Z M 510.078125 438.605469 C 503.511719 438.605469 497.714844 434.644531 495.21875 428.738281 C 501.496094 425.8125 506.21875 419.988281 507.539062 412.953125 C 511.386719 412.285156 514.902344 410.621094 517.785156 408.207031 C 522.960938 411.023438 526.242188 416.410156 526.242188 422.410156 C 526.242188 431.339844 518.996094 438.605469 510.078125 438.605469 Z M 541.644531 397.363281 C 541.644531 404.707031 536.652344 411.03125 529.753906 412.933594 C 527.992188 409.257812 525.210938 406.136719 521.695312 403.921875 C 524.171875 400.378906 525.636719 396.070312 525.636719 391.429688 C 525.636719 387.816406 524.746094 384.402344 523.191406 381.378906 C 523.949219 381.269531 524.707031 381.171875 525.484375 381.171875 C 534.390625 381.167969 541.644531 388.433594 541.644531 397.363281 Z M 531.433594 368.761719 C 531.433594 371.273438 530.839844 373.707031 529.746094 375.925781 C 528.367188 375.652344 526.941406 375.5 525.480469 375.5 C 523.46875 375.5 521.492188 375.773438 519.585938 376.308594 C 517.457031 374.078125 514.851562 372.300781 511.910156 371.125 C 514.109375 367.710938 515.402344 363.660156 515.402344 359.300781 C 515.402344 356.972656 515.03125 354.730469 514.355469 352.625 C 514.664062 352.609375 514.964844 352.566406 515.273438 352.566406 C 524.183594 352.5625 531.433594 359.832031 531.433594 368.761719 Z M 548.21875 362.386719 C 545.917969 362.386719 544.046875 359.996094 544.046875 357.058594 C 544.046875 354.117188 545.917969 351.730469 548.21875 351.730469 C 550.515625 351.730469 552.386719 354.121094 552.386719 357.058594 C 552.386719 359.996094 550.515625 362.386719 548.21875 362.386719 Z M 548.21875 362.386719 " fill-opacity="1" fill-rule="nonzero"/></g><path fill="#3a322b" d="M 306.625 355.8125 C 307.117188 356.152344 307.679688 356.316406 308.238281 356.316406 C 309.132812 356.316406 310.011719 355.894531 310.5625 355.101562 C 311.453125 353.820312 311.136719 352.050781 309.855469 351.15625 C 287.589844 335.628906 275.714844 315.480469 274.546875 291.277344 C 274.46875 289.714844 273.109375 288.503906 271.585938 288.582031 C 270.023438 288.660156 268.824219 289.988281 268.898438 291.550781 C 270.15625 317.601562 282.847656 339.222656 306.625 355.8125 Z M 306.625 355.8125 " fill-opacity="1" fill-rule="nonzero"/></svg>